<?xml version="1.0" encoding="utf-8"?><svg xmlns="http://www.w3.org/2000/svg" xmlns:xlink="http://www.w3.org/1999/xlink"><symbol viewBox="0 0 50 50" id="basis" xmlns="http://www.w3.org/2000/svg"><path d="M21.543 43.179V30.391a.798.798 0 00-.798-.798h-5.32a.798.798 0 100 1.596h4.522v11.99a3.463 3.463 0 00-2.66 3.364A3.461 3.461 0 0020.745 50a3.461 3.461 0 003.457-3.457 3.463 3.463 0 00-2.66-3.364zm-.798 5.225a1.864 1.864 0 01-1.862-1.861c0-1.027.835-1.862 1.862-1.862 1.026 0 1.861.835 1.861 1.862a1.864 1.864 0 01-1.861 1.861zm9.308-5.225V30.391a.798.798 0 00-.798-.798h-5.319a.798.798 0 100 1.596h4.521v11.99a3.463 3.463 0 00-2.66 3.364A3.461 3.461 0 0029.256 50a3.461 3.461 0 003.458-3.457 3.463 3.463 0 00-2.66-3.364zm-.798 5.225a1.864 1.864 0 01-1.861-1.861c0-1.027.835-1.862 1.861-1.862 1.027 0 1.862.835 1.862 1.862a1.864 1.864 0 01-1.862 1.861zm14.362-10.638a3.463 3.463 0 00-3.363 2.66h-1.69V30.39a.798.798 0 00-.798-.798h-5.32a.798.798 0 100 1.596h4.522v10.034c0 .441.357.798.798.798h2.488a3.463 3.463 0 003.363 2.66 3.461 3.461 0 003.458-3.458 3.461 3.461 0 00-3.458-3.457zm0 5.32a1.864 1.864 0 01-1.862-1.863c0-1.026.835-1.861 1.862-1.861 1.027 0 1.862.835 1.862 1.861a1.864 1.864 0 01-1.862 1.862z"/><path d="M48.1 17.187a8.66 8.66 0 00-4.16-2.829 15.003 15.003 0 00-4.452-9.98A15.01 15.01 0 0028.854 0a15.119 15.119 0 00-12.88 7.211 6.853 6.853 0 00-2.067-.316 6.91 6.91 0 00-6.738 5.437A9.604 9.604 0 000 21.606c0 5.284 4.299 9.583 9.582 9.583h1.854v9.236h-1.69a3.463 3.463 0 00-3.363-2.659 3.461 3.461 0 00-3.457 3.457 3.461 3.461 0 003.457 3.458 3.463 3.463 0 003.363-2.66h2.488c.44 0 .798-.357.798-.798V30.391a.798.798 0 00-.798-.798H9.582c-4.403 0-7.986-3.583-7.986-7.986 0-3.8 2.701-7.095 6.423-7.833a.798.798 0 00.636-.68 5.308 5.308 0 015.252-4.603c.73 0 1.436.146 2.102.434a.798.798 0 001.015-.346 13.524 13.524 0 0111.83-6.983c7.381 0 13.44 6.004 13.507 13.384a.798.798 0 00.618.77 6.977 6.977 0 015.425 6.83 7.02 7.02 0 01-7.012 7.013h-.435a.798.798 0 100 1.596h.434c4.747 0 8.609-3.862 8.609-8.609a8.626 8.626 0 00-1.9-5.393zM6.383 43.085a1.864 1.864 0 01-1.862-1.862c0-1.026.835-1.861 1.862-1.861 1.026 0 1.862.835 1.862 1.861a1.864 1.864 0 01-1.862 1.862z"/><path d="M38.903 15.809h.008a.798.798 0 00.79-.805c-.012-1.314-.26-2.6-.737-3.822a.798.798 0 00-1.486.58 9.146 9.146 0 01.627 3.256.799.799 0 00.798.791zM35.987 9.23a.796.796 0 001.123.106.798.798 0 00.107-1.123 10.823 10.823 0 00-8.363-3.958.798.798 0 100 1.596 9.23 9.23 0 017.133 3.378z"/></symbol><symbol viewBox="0 0 50 50" id="calendar" xmlns="http://www.w3.org/2000/svg"><path d="M15.763 39.307c0 .462.23.693.693.693h7.16c.463 0 .694-.231.694-.693v-.42c0-.462-.231-.693-.693-.693h-2.562V25.867c0-.462-.231-.693-.693-.693h-.672c-.315 0-.61.105-.84.336l-2.688 2.625c-.336.315-.336.651 0 .987l.294.294c.294.336.609.336.966.021l.945-.924c.315-.315.525-.567.65-.798h.043l-.021.903v9.576h-2.583c-.462 0-.693.231-.693.693v.42zm9.802 0c0 .462.252.693.735.693h8.232c.462 0 .693-.231.693-.693v-.42c0-.462-.231-.693-.693-.693h-6.7c.106-3.36 7.162-4.158 7.162-9.009 0-1.281-.441-2.31-1.323-3.087-.861-.777-1.995-1.176-3.36-1.176-2.1 0-3.507 1.071-4.326 2.226-.231.357-.168.672.189.945l.378.294c.315.273.65.21.987-.147.714-.903 1.596-1.365 2.625-1.365 1.575 0 2.667 1.008 2.667 2.457 0 1.722-1.806 2.814-3.633 4.095-1.26.924-2.373 1.722-3.108 3.15-.357.693-.525 1.47-.525 2.289v.441z"/><path d="M44.792 50H5.208A5.214 5.214 0 010 44.792V9.375a5.214 5.214 0 015.208-5.208h39.584A5.214 5.214 0 0150 9.375v35.417A5.214 5.214 0 0144.792 50zM5.208 6.25a3.129 3.129 0 00-3.125 3.125v35.417a3.129 3.129 0 003.125 3.125h39.584a3.129 3.129 0 003.125-3.125V9.375a3.129 3.129 0 00-3.125-3.125H5.208z"/><path d="M48.958 18.75H1.042a1.042 1.042 0 010-2.083h47.916a1.042 1.042 0 010 2.083zm-37.5-8.333a1.042 1.042 0 01-1.041-1.042V1.042a1.042 1.042 0 012.083 0v8.333c0 .575-.467 1.042-1.042 1.042zm27.084 0A1.042 1.042 0 0137.5 9.375V1.042a1.042 1.042 0 012.083 0v8.333c0 .575-.466 1.042-1.041 1.042z"/></symbol><symbol viewBox="0 0 55 49" id="car" xmlns="http://www.w3.org/2000/svg"><path d="M52.952 24.602l-3.3-10.326a5.533 5.533 0 00-5.133-3.526h-6.523L35.9 4.199A5.52 5.52 0 0030.772.667H10.479a5.533 5.533 0 00-5.145 3.58L2.048 14.519A2.747 2.747 0 000 17.167v11a2.753 2.753 0 002.75 2.75h.917V35.5a2.753 2.753 0 002.75 2.75h2.75a2.753 2.753 0 002.75-2.75v-4.583h1.833v7.333A2.753 2.753 0 0016.5 41h.917v4.583a2.753 2.753 0 002.75 2.75h2.75a2.753 2.753 0 002.75-2.75V41h17.416v4.583a2.753 2.753 0 002.75 2.75h2.75a2.753 2.753 0 002.75-2.75V41h.917A2.753 2.753 0 0055 38.25v-11a2.747 2.747 0 00-2.048-2.648zm-5.029-9.719l3.072 9.617h-3.16l-2.44-8.503a.917.917 0 00-.882-.664H24.237a.917.917 0 00-.882.664l-2.44 8.503h-3.16l2.809-8.8c.006-.013.008-.028.014-.042l.231-.725a3.688 3.688 0 013.422-2.35H44.52a3.675 3.675 0 013.404 2.3zM45.927 24.5H22.823l2.104-7.333h18.896l2.104 7.333zM19.08 14.326l-.03.09H9.074l2.104-7.333h18.897l1.057 3.667h-6.9a5.547 5.547 0 00-5.151 3.576zM7.063 4.853A3.674 3.674 0 0110.477 2.5h20.296a3.662 3.662 0 013.398 2.305l1.9 5.945H33.04l-1.395-4.837a.917.917 0 00-.88-.663H10.486a.917.917 0 00-.882.664l-2.44 8.503h-3.16l3.058-9.564zm3.02 30.647c0 .506-.41.916-.916.917h-2.75A.918.918 0 015.5 35.5v-4.583h4.583V35.5zM2.75 29.083a.918.918 0 01-.917-.916v-11a.919.919 0 01.917-.917h15.715l-2.667 8.352a2.747 2.747 0 00-2.048 2.648v1.833h-11zm21.083 16.5c0 .506-.41.916-.916.917h-2.75a.918.918 0 01-.917-.917V41h4.583v4.583zm25.667 0c0 .506-.41.916-.917.917h-2.75a.918.918 0 01-.916-.917V41H49.5v4.583zm3.667-7.333a.919.919 0 01-.917.917H16.5a.918.918 0 01-.917-.917v-11a.919.919 0 01.917-.917h35.75a.919.919 0 01.917.917v11z"/><path d="M21.542 29.083a3.208 3.208 0 100 6.417 3.208 3.208 0 000-6.417zm0 4.584a1.375 1.375 0 110-2.75 1.375 1.375 0 010 2.75zm25.666-4.584a3.208 3.208 0 100 6.417 3.208 3.208 0 000-6.417zm0 4.584a1.375 1.375 0 110-2.75 1.375 1.375 0 010 2.75zM7.792 19a3.208 3.208 0 100 6.417 3.208 3.208 0 000-6.417zm0 4.583a1.375 1.375 0 110-2.75 1.375 1.375 0 010 2.75z"/></symbol><symbol viewBox="0 0 512 512" id="catalizator" xmlns="http://www.w3.org/2000/svg"><path d="M497 270.467h-53.787l-46.819-46.82c-8.499-8.5-19.8-13.18-31.82-13.18H147.427c-12.021 0-23.321 4.681-31.82 13.18l-46.819 46.82H15c-8.284 0-15 6.716-15 15v120c0 8.284 6.716 15 15 15h53.787l46.819 46.82c8.499 8.499 19.8 13.18 31.82 13.18h217.146c12.021 0 23.321-4.681 31.82-13.18l46.819-46.82H497c8.284 0 15-6.716 15-15v-120c0-8.284-6.716-15-15-15zm-437 120H30v-90h30v90zm60 38.788l-30-30.001V291.681l30-30v167.574zm242 21.212H150v-210h212v210zm60-51.213l-30 30.001V261.68l30 30v107.574zm60-8.787h-30v-90h30v90zM189.07 119.015c30.305-20.202 30.281-64.775 0-84.961-6.893-4.595-16.206-2.733-20.801 4.16-4.596 6.893-2.733 16.206 4.16 20.801 12.517 8.346 12.535 26.681 0 35.039-30.305 20.202-30.281 64.774 0 84.961 6.896 4.597 16.209 2.73 20.801-4.16 4.596-6.893 2.733-16.206-4.16-20.801-12.517-8.346-12.535-26.681 0-35.039zm77 0c30.305-20.202 30.281-64.775 0-84.961-6.893-4.595-16.206-2.733-20.801 4.16-4.596 6.893-2.733 16.206 4.16 20.801 12.517 8.346 12.535 26.681 0 35.039-30.305 20.202-30.281 64.774 0 84.961 6.896 4.597 16.209 2.73 20.801-4.16 4.596-6.893 2.733-16.206-4.16-20.801-12.517-8.346-12.535-26.681 0-35.039zm75 0c30.305-20.202 30.281-64.775 0-84.961-6.894-4.595-16.207-2.733-20.801 4.16-4.596 6.893-2.733 16.206 4.16 20.801 12.517 8.346 12.535 26.681 0 35.039-30.305 20.202-30.281 64.774 0 84.961 6.896 4.597 16.209 2.73 20.801-4.16 4.596-6.893 2.733-16.206-4.16-20.801-12.517-8.346-12.535-26.681 0-35.039z"/><path d="M195 270.467c-8.284 0-15 6.716-15 15v120c0 8.284 6.716 15 15 15s15-6.716 15-15v-120c0-8.284-6.716-15-15-15zm62 0c-8.284 0-15 6.716-15 15v120c0 8.284 6.716 15 15 15s15-6.716 15-15v-120c0-8.284-6.716-15-15-15zm60 0c-8.284 0-15 6.716-15 15v120c0 8.284 6.716 15 15 15s15-6.716 15-15v-120c0-8.284-6.716-15-15-15z"/></symbol><symbol viewBox="0 0 50 46" id="certificate" xmlns="http://www.w3.org/2000/svg"><path d="M47.288.246H2.712A2.715 2.715 0 000 2.958v9.819a.74.74 0 001.48 0V2.958c0-.68.552-1.233 1.232-1.233h44.576c.68 0 1.233.554 1.233 1.233v29.586c0 .68-.553 1.233-1.233 1.233H31.975a7.072 7.072 0 000-2.072h9.593a.74.74 0 00.74-.74 3.406 3.406 0 013.402-3.401.74.74 0 00.74-.74V14.242a.74.74 0 00-1.48 0V26.14a4.893 4.893 0 00-4.086 4.086h-9.298c-1.015-2.65-3.584-4.536-6.586-4.536-3.002 0-5.571 1.887-6.586 4.536H9.116A4.893 4.893 0 005.03 26.14V9.362a4.893 4.893 0 004.086-4.086h31.768a4.893 4.893 0 004.086 4.086v1.43a.74.74 0 001.48 0V8.678a.74.74 0 00-.74-.74 3.406 3.406 0 01-3.402-3.402.74.74 0 00-.74-.74H8.432a.74.74 0 00-.74.74A3.406 3.406 0 014.29 7.938a.74.74 0 00-.74.74v18.146c0 .408.331.74.74.74a3.406 3.406 0 013.402 3.402c0 .408.331.74.74.74h9.593a7.08 7.08 0 000 2.07H2.712c-.68 0-1.233-.552-1.233-1.232V16.216a.74.74 0 10-1.479 0v16.328a2.715 2.715 0 002.712 2.712h15.702a7.05 7.05 0 001.014 1.799v7.915a.74.74 0 001.02.685L25 43.796l4.553 1.859a.743.743 0 00.692-.071.74.74 0 00.327-.614v-2.116a.74.74 0 00-1.48 0v1.015l-3.812-1.556a.742.742 0 00-.56 0l-3.813 1.556v-5.391A7.013 7.013 0 0025 39.792a7.013 7.013 0 004.093-1.314v.92a.74.74 0 101.48 0v-2.343a7.05 7.05 0 001.013-1.8h15.702A2.715 2.715 0 0050 32.545V2.958A2.715 2.715 0 0047.288.246zM25 38.313a5.578 5.578 0 01-5.572-5.572c0-3.072 2.5-5.572 5.572-5.572s5.572 2.5 5.572 5.572c0 3.073-2.5 5.572-5.572 5.572z"/><path d="M31.509 10.01a.74.74 0 100-1.48H18.491a.74.74 0 100 1.48h13.018zm4.931 2.465H13.56a.74.74 0 100 1.48h22.88a.74.74 0 100-1.48zm0 3.945H13.56a.74.74 0 000 1.479h22.88a.74.74 0 100-1.48zm0 4.536h-3.55a.74.74 0 100 1.48h3.55a.74.74 0 100-1.48zm-22.88 0a.74.74 0 100 1.48h3.55a.74.74 0 100-1.48h-3.55zM25 28.846a3.9 3.9 0 00-3.896 3.895A3.9 3.9 0 0025 36.637a3.9 3.9 0 003.896-3.896A3.9 3.9 0 0025 28.846zm0 6.311a2.419 2.419 0 01-2.416-2.416A2.419 2.419 0 0125 30.325a2.419 2.419 0 012.416 2.416A2.419 2.419 0 0125 35.157zm-2.515-13.461A2.517 2.517 0 0025 24.21a2.517 2.517 0 002.515-2.514A2.517 2.517 0 0025 19.18a2.517 2.517 0 00-2.515 2.515zm3.55 0a1.037 1.037 0 01-2.07 0 1.037 1.037 0 012.07 0z"/></symbol><symbol viewBox="0 0 46 44" id="char" xmlns="http://www.w3.org/2000/svg"><path d="M45.042 44H.958a.958.958 0 110-1.913h44.084a.957.957 0 110 1.913z"/><path d="M12.458 44H2.875a.958.958 0 01-.958-.956V32.522c0-1.054.86-1.913 1.916-1.913H11.5c1.056 0 1.917.859 1.917 1.913v10.522c0 .528-.43.956-.959.956zm-8.625-1.913H11.5v-9.565H3.833v9.565zM27.792 44h-9.584a.958.958 0 01-.958-.956v-22c0-1.055.86-1.914 1.917-1.914h7.666a1.92 1.92 0 011.917 1.914v22c0 .528-.43.956-.958.956zm-8.625-1.913h7.666V21.043h-7.666v21.044zM43.125 44h-9.583a.958.958 0 01-.959-.956V9.565c0-1.054.861-1.913 1.917-1.913h7.667c1.056 0 1.916.86 1.916 1.913v33.479a.957.957 0 01-.958.956zM34.5 42.087h7.667V9.565H34.5v32.522zM4.792 19.13a.956.956 0 01-.679-1.632L21.363.282a.96.96 0 011.355 0 .956.956 0 010 1.353L5.468 18.85a.956.956 0 01-.676.28z"/><path d="M22.042 9.565a.958.958 0 01-.959-.956V1.913h-6.708a.958.958 0 110-1.913h7.667c.529 0 .958.429.958.957v7.652c0 .528-.43.956-.958.956z"/></symbol><symbol viewBox="0 0 50 55" id="check-car" xmlns="http://www.w3.org/2000/svg"><path d="M45.455 33.4V4.545c0-1.545-1.182-2.727-2.728-2.727H30.91c0-1-.818-1.818-1.818-1.818H16.364c-1 0-1.819.818-1.819 1.818H2.727C1.182 1.818 0 3 0 4.545v47.273c0 1.546 1.182 2.727 2.727 2.727h35.455A11.795 11.795 0 0050 42.727c0-3.798-1.776-7.167-4.545-9.327zM42.727 3.636c.546 0 .91.364.91.91v27.687c-.58-.3-1.188-.554-1.819-.757V7.273c0-1-.818-1.818-1.818-1.818h-9.09V3.636h11.817zM26.37 43.097l.002.054a11.77 11.77 0 001.84 5.94H5.455V7.273h9.09c0 1 .819 1.818 1.819 1.818H29.09c1 0 1.818-.818 1.818-1.818H40v23.774c-.127-.02-.255-.036-.383-.052l-.027-.003a11.945 11.945 0 00-.635-.057l-.094-.006a12.222 12.222 0 00-.25-.011l-.092-.004A11.795 11.795 0 0026.37 43.097zM16.364 1.818H29.09v5.455H16.364V1.818zM2.727 52.728c-.545 0-.909-.364-.909-.91V4.545c0-.545.364-.909.91-.909h11.817v1.819h-9.09c-1 0-1.819.818-1.819 1.818V49.09c0 1 .819 1.818 1.819 1.818H29.64a11.74 11.74 0 002.226 1.818H2.726zm35.455 0a9.968 9.968 0 01-7.303-3.153.78.78 0 00-.152-.211 9.92 9.92 0 01-2.534-6.172v-.017a9.971 9.971 0 0110.34-10.44h.031l.079.004a10.447 10.447 0 01.443.03c.01 0 .02.002.029.003.507.05 1.014.15 1.521.319a.696.696 0 00.319.028 10.46 10.46 0 012.763 1.267 9.969 9.969 0 014.464 8.341c0 5.546-4.455 10-10 10z"/><path d="M44.182 37.545c-.455-.363-1-.272-1.273.182L37.82 45l-3.546-2.91c-.364-.363-1-.272-1.273.092-.364.363-.273 1 .09 1.273L37.455 47c.091.09.364.182.546.182 0 0 .09 0 .09.09.274 0 .455-.181.637-.363l5.637-8.09c.363-.455.272-1-.182-1.274zM30 30a3.65 3.65 0 003.52-2.727h1.39c1.363 0 2.363-1 2.454-2.364v-3.545A2.347 2.347 0 0035 19h-1.936l-3.519-4.91c-.545-.817-1.454-1.272-2.454-1.272h-3.934a1.003 1.003 0 00-.43-.09c-.16 0-.305.032-.43.09h-3.933c-1 0-1.91.455-2.455 1.273L12.391 19h-1.845a2.347 2.347 0 00-2.364 2.364v3.545c0 1.364 1 2.364 2.364 2.364h1.388A3.65 3.65 0 0015.454 30a3.65 3.65 0 003.521-2.727h7.505A3.65 3.65 0 0030 30zm0-1.818c-1 0-1.818-.818-1.818-1.818S29 24.545 30 24.545s1.818.819 1.818 1.819S31 28.182 30 28.182zM28 15l2.845 4h-7.209v-4.454H27c.455 0 .818.181 1 .454zm-10.727 0c.273-.273.636-.455 1-.455h3.545V19h-7.3l2.755-4zm-1.818 13.182c-1 0-1.819-.818-1.819-1.818s.819-1.819 1.819-1.819 1.818.818 1.818 1.819c0 1-.818 1.818-1.818 1.818zm.09-5.455l-.049.001h-.041a3.65 3.65 0 00-3.52 2.726h-1.39c-.272 0-.545-.272-.545-.545v-3.545c0-.273.273-.546.546-.546h1.772a.94.94 0 00.41.091h20a.94.94 0 00.408-.09H35c.273 0 .545.272.545.545v3.545c0 .273-.272.546-.545.546h-1.455c-.454-1.546-1.636-2.728-3.363-2.728l-.1.002-.082-.002a3.65 3.65 0 00-3.52 2.727h-7.39c-.454-1.545-1.817-2.727-3.544-2.727zm7.182 11.818H9.091c-.545 0-.91.364-.91.91 0 .545.365.909.91.909h13.636c.546 0 .91-.364.91-.91 0-.545-.364-.909-.91-.909zm0 4.545H9.091c-.545 0-.91.364-.91.91 0 .545.365.91.91.91h13.636c.546 0 .91-.364.91-.91 0-.545-.364-.91-.91-.91zm0 4.546H9.091c-.545 0-.91.364-.91.91 0 .545.365.909.91.909h13.636c.546 0 .91-.364.91-.91 0-.545-.364-.909-.91-.909z"/></symbol><symbol viewBox="0 0 23 23" id="chip" xmlns="http://www.w3.org/2000/svg"><path d="M14.14 21.828a1.172 1.172 0 002.343 0v-1.892h-2.341v1.892h-.003zm0-20.656v1.892h2.34V1.172a1.17 1.17 0 10-2.341 0zm-3.812 0v1.892h2.344V1.172a1.172 1.172 0 00-2.344 0zm0 20.656a1.172 1.172 0 002.344 0v-1.892h-2.344v1.892zM6.52 1.172v1.892h2.34V1.172a1.17 1.17 0 10-2.342 0zm0 20.656a1.172 1.172 0 002.343 0v-1.892H6.52v1.892zM0 15.309c0 .647.525 1.172 1.172 1.172h1.892v-2.342H1.172A1.17 1.17 0 000 15.31zm21.828-1.169h-1.892v2.34h1.892a1.17 1.17 0 100-2.341zM0 11.5c0 .647.525 1.172 1.172 1.172h1.892v-2.344H1.172C.525 10.328 0 10.853 0 11.5zm21.828-1.172h-1.892v2.344h1.892a1.172 1.172 0 000-2.344zM0 7.691c0 .647.525 1.172 1.172 1.172h1.892V6.52H1.172C.525 6.52 0 7.044 0 7.691zM21.828 6.52h-1.892v2.34h1.892a1.17 1.17 0 100-2.341zM4.19 17.59c0 .673.547 1.22 1.22 1.22h12.18c.673 0 1.22-.547 1.22-1.22V5.41c0-.673-.547-1.22-1.22-1.22H5.41c-.673 0-1.22.547-1.22 1.22v12.18z"/></symbol><symbol viewBox="0 0 18 18" id="clock" xmlns="http://www.w3.org/2000/svg"><path d="M9 0a9 9 0 100 18A9 9 0 009 0zm.621 10.1c0 .024-.004.048-.007.071-.002.018-.003.036-.007.054-.004.018-.011.036-.017.054-.007.022-.014.044-.023.065l-.004.01a.62.62 0 01-.046.082l-.004.005a.624.624 0 01-.151.153l-.022.016a.622.622 0 01-.093.05l-.021.008a.611.611 0 01-.227.044c-.007 0-.015-.003-.023-.003a.62.62 0 01-.106-.011c-.01-.003-.021-.008-.032-.01a.63.63 0 01-.093-.032l-.01-.004-3.451-1.628a.622.622 0 01.53-1.126l2.563 1.21V3.734a.622.622 0 011.245 0V10.1z"/></symbol><symbol viewBox="0 0 51 52" id="codes" xmlns="http://www.w3.org/2000/svg"><path d="M50.402 48.306l-4.53-16.62V7.733a2.586 2.586 0 00-2.577-2.578h-7.76a12.839 12.839 0 00-20.574 0h-7.76a2.586 2.586 0 00-2.578 2.578v23.951L.094 48.305a2.569 2.569 0 002.484 3.258h45.34a2.568 2.568 0 002.484-3.258zM25.248 1.718A11.172 11.172 0 1114.076 12.89 11.182 11.182 0 0125.248 1.719zM6.342 7.734a.86.86 0 01.859-.859h6.651a12.891 12.891 0 1022.791 0h6.652a.86.86 0 01.86.86v23.203H6.341V7.733zM48.606 49.51a.85.85 0 01-.688.335H2.578a.85.85 0 01-.849-.697.876.876 0 01.015-.395l4.391-16.096H44.36l4.392 16.096a.877.877 0 01-.146.757z"/><path d="M32.956 43.62a.86.86 0 00-.833-.651h-13.75a.86.86 0 00-.834.651l-.86 3.438a.86.86 0 00.835 1.067h15.468a.86.86 0 00.834-1.067l-.86-3.438zm-14.342 2.786l.43-1.718h12.408l.43 1.718H18.613zM20.951 27.5h8.594v1.719H20.95V27.5zM8.06 34.375h3.438v1.719H8.06v-1.719zm5.157 0h3.437v1.719h-3.437v-1.719zm5.156 0h3.437v1.719h-3.437v-1.719zm10.312 0h3.438v1.719h-3.438v-1.719zm5.157 0h3.437v1.719h-3.437v-1.719zm5.156 0h3.437v1.719h-3.437v-1.719zm-15.468 0h3.437v1.719h-3.438v-1.719zM8.06 37.813h3.438v1.718H8.06v-1.718zm5.157 0h3.437v1.718h-3.437v-1.718zm5.156 0h3.437v1.718h-3.437v-1.718zm10.312 0h3.438v1.718h-3.438v-1.718zm5.157 0h3.437v1.718h-3.437v-1.718zm5.156 0h3.437v1.718h-3.437v-1.718zm-15.468 0h3.437v1.718h-3.438v-1.718zm-7.353-24.207l5.156 3.437.954-1.43-4.086-2.722 4.084-2.723-.954-1.43-5.156 3.438a.86.86 0 000 1.43h.002zm12.985 3.437l5.157-3.437a.859.859 0 000-1.43l-5.157-3.438-.954 1.43 4.087 2.723-4.084 2.722.951 1.43zm-5.618-.039l1.718-8.598 1.686.337-1.718 8.598-1.686-.337z"/></symbol><symbol viewBox="0 0 19 19" id="egr" xmlns="http://www.w3.org/2000/svg"><path d="M12.283 13.99H6.717a.557.557 0 00-.557.557v1.113c0 .308.25.557.557.557h5.566c.308 0 .557-.25.557-.557v-1.113a.557.557 0 00-.557-.557zM7.017 2.294l-.787-.787a.557.557 0 00-.787 0L1.507 5.443a.557.557 0 000 .787l.787.787c.218.218.57.218.787 0l3.936-3.936a.557.557 0 000-.787zm6.54-.787a.557.557 0 00-.787 0l-.787.787a.557.557 0 000 .787l3.936 3.936c.217.218.57.218.787 0l.787-.787a.557.557 0 000-.787l-3.936-3.936zM7.273 18.443c0 .308.25.557.557.557h3.34c.307 0 .557-.25.557-.557V17.33H7.273v1.113zM3.312.163a.557.557 0 00-.787 0L.163 2.525a.557.557 0 000 .787l.95.95 3.15-3.149-.951-.95zm15.525 2.362L16.475.163a.557.557 0 00-.787 0l-.95.95 3.149 3.15.95-.951a.557.557 0 000-.787zM9.5 6.351L7.411 4.262 4.262 7.411l3.011 3.011v2.455h4.454v-2.455l3.01-3.011-3.148-3.149L9.5 6.352z"/></symbol><symbol viewBox="0 0 19 20" id="fillter" xmlns="http://www.w3.org/2000/svg"><path d="M18.182 0H.819A.813.813 0 00.09.455a.869.869 0 00.065.884l6.36 9.202.007.01a1.9 1.9 0 01.357 1.107v7.502a.847.847 0 00.236.594.802.802 0 00.897.18l3.574-1.4c.32-.1.533-.41.533-.784v-6.092a1.9 1.9 0 01.357-1.108l.006-.009 6.361-9.202a.868.868 0 00.065-.884.813.813 0 00-.727-.455z"/></symbol><symbol viewBox="0 0 40 50" id="magistr" xmlns="http://www.w3.org/2000/svg"><path d="M34.434 32.666l-2.935-.862-6.384-4.17v-.955a8.497 8.497 0 003.354-5.968 1.95 1.95 0 001.637-1.924V16.16l-.002-.03V12.8c.37-.264.604-.695.604-1.178V8.577l4.406-.75a1.539 1.539 0 001.296-1.432 1.539 1.539 0 00-1.085-1.597L20.472.074a1.554 1.554 0 00-.947 0L4.672 4.798a1.54 1.54 0 00-1.085 1.597c.032.466.255.867.598 1.13v3.983H4.15c-.837 0-1.517.68-1.517 1.517v1.977l-.98 5.748a1.63 1.63 0 001.608 1.903h3.315a1.63 1.63 0 001.607-1.904l-.979-5.747v-1.977c0-.836-.68-1.517-1.517-1.517H5.65v-3.55l3.642.62v3.045c0 .481.233.911.6 1.176l.002 5.988c0 .969.71 1.774 1.637 1.924a8.498 8.498 0 003.35 5.966v.96L8.5 31.806l-2.932.86a7.448 7.448 0 00-5.353 7.15V42a.732.732 0 101.465 0v-2.183a6.02 6.02 0 014.3-5.744l2.732-.802 10.915 6.486a.741.741 0 00.748 0L31.29 33.27l2.731.801a6.02 6.02 0 014.3 5.745v7.074c0 .907-.737 1.645-1.645 1.645h-3.228v-3.157a.732.732 0 10-1.465 0v3.157H8.013v-3.157a.732.732 0 10-1.464 0v3.157H3.324a1.647 1.647 0 01-1.646-1.645v-1.467a.732.732 0 10-1.464 0v1.467A3.114 3.114 0 003.324 50h33.352a3.114 3.114 0 003.11-3.11v-7.074c0-3.27-2.14-6.207-5.352-7.15zM6.575 21.189H3.26a.165.165 0 01-.163-.194l.885-5.198h1.87l.886 5.198a.165.165 0 01-.163.194zm-.837-8.164v1.307H4.096v-1.307c0-.029.024-.052.053-.052h1.537c.029 0 .052.023.052.052zm11.643 23.418l.291.448-7.477-4.444 4.746-3.1a15.385 15.385 0 002.44 7.096zm-.006-3.162c1.724.245 3.525.245 5.25 0-.334.82-.744 1.611-1.233 2.363L20 37.783l-1.392-2.14c-.489-.75-.9-1.542-1.233-2.362zm5.244 3.162a15.385 15.385 0 002.44-7.096l4.746 3.1-7.477 4.444.291-.448zm4.285-23.369h1.736v2.353h-.862a.875.875 0 01-.874-.874v-1.479zM5.116 6.194L19.969 1.47a.096.096 0 01.059 0l14.854 4.724c.03.01.072.023.067.1-.005.076-.049.083-.08.089l-4.912.836-1.843-.228a.733.733 0 00-.18 1.454l1.31.162v3.002H10.756V8.607l7.578-.938a13.568 13.568 0 013.327 0l2.868.355a.733.733 0 00.18-1.454l-2.869-.355a15.025 15.025 0 00-3.685 0L10.04 7.219l-4.912-.836c-.032-.006-.076-.013-.081-.09-.005-.076.037-.09.068-.099zm6.242 9.233v-2.353h1.738v1.48a.875.875 0 01-.874.873h-.864zm1.612 4.907a1.135 1.135 0 00-1.128-1.064.484.484 0 01-.483-.483v-1.895h.863a2.341 2.341 0 002.339-2.339v-1.479h10.878v1.48a2.342 2.342 0 002.339 2.338h.863v1.895a.484.484 0 01-.483.483c-.595 0-1.09.468-1.129 1.064-.233 3.698-3.32 6.595-7.03 6.595-3.708 0-6.795-2.897-7.028-6.595zm7.03 8.06c1.303 0 2.54-.298 3.65-.827v.464a13.96 13.96 0 01-.494 3.679c-1.99.38-4.24.395-6.312 0a13.958 13.958 0 01-.494-3.68l-.003-.045v-.42c1.11.53 2.35.829 3.653.829z"/></symbol><symbol viewBox="0 0 15 20" id="marker" xmlns="http://www.w3.org/2000/svg"><path d="M7.448 10.813a3.365 3.365 0 100-6.731 3.365 3.365 0 000 6.73z"/><path d="M7.448 20s7.447-8.44 7.447-12.552A7.448 7.448 0 100 7.448C0 11.56 7.448 20 7.448 20zm0-17.695a5.142 5.142 0 110 10.284 5.142 5.142 0 010-10.284z"/></symbol><symbol viewBox="0 0 20 20" id="phone" xmlns="http://www.w3.org/2000/svg"><path d="M15.205 13.23c-.653-.645-1.469-.645-2.118 0-.495.491-.99.982-1.478 1.482-.133.137-.245.166-.408.075-.32-.175-.661-.316-.97-.508-1.435-.903-2.638-2.064-3.703-3.371-.529-.65-1-1.344-1.328-2.127-.066-.158-.054-.262.075-.39.495-.48.978-.97 1.465-1.462.678-.682.678-1.481-.004-2.168-.387-.391-.774-.774-1.161-1.165-.4-.4-.795-.804-1.199-1.199-.653-.637-1.469-.637-2.118.004-.5.491-.978.995-1.486 1.478-.47.445-.708.99-.758 1.627C-.065 6.542.19 7.52.547 8.473c.733 1.973 1.848 3.725 3.2 5.332a19.805 19.805 0 006.56 5.131c1.148.558 2.339.987 3.633 1.057.89.05 1.665-.174 2.285-.87.424-.474.903-.907 1.352-1.36.666-.675.67-1.49.009-2.156-.79-.795-1.586-1.586-2.38-2.377zm-.795-3.316l1.536-.263a6.864 6.864 0 00-1.919-3.704 6.827 6.827 0 00-3.912-1.952L9.9 5.54a5.297 5.297 0 013.03 1.511 5.296 5.296 0 011.481 2.864zm2.402-6.676A11.324 11.324 0 0010.319 0l-.216 1.544a9.825 9.825 0 015.61 2.797 9.811 9.811 0 012.751 5.306L20 9.385a11.407 11.407 0 00-3.188-6.147z"/></symbol><symbol viewBox="0 0 20 20" id="search" xmlns="http://www.w3.org/2000/svg"><path d="M14.677 12.91a8.071 8.071 0 001.573-4.785C16.25 3.645 12.605 0 8.125 0S0 3.645 0 8.125s3.645 8.125 8.125 8.125c1.79 0 3.44-.589 4.785-1.573L18.232 20 20 18.232l-5.323-5.322zm-6.552.84A5.631 5.631 0 012.5 8.125 5.631 5.631 0 018.125 2.5a5.631 5.631 0 015.625 5.625 5.631 5.631 0 01-5.625 5.625z"/></symbol><symbol viewBox="0 0 23 23" id="setings" xmlns="http://www.w3.org/2000/svg"><path d="M22.137 9.783l-1.242-.125a9.557 9.557 0 00-.335-1.261l1.012-.727a.956.956 0 00.27-1.258l-.764-1.323a.957.957 0 00-1.224-.395l-1.133.512a9.585 9.585 0 00-.926-.926l.512-1.134a.957.957 0 00-.395-1.224L16.59 1.16a.956.956 0 00-1.258.27l-.727 1.012a9.428 9.428 0 00-1.261-.335L13.218.864A.957.957 0 0012.264 0h-1.529a.955.955 0 00-.953.862l-.125 1.242c-.43.084-.853.197-1.261.336l-.727-1.011a.956.956 0 00-1.258-.27l-1.322.763a.956.956 0 00-.395 1.225l.512 1.133c-.33.286-.64.596-.926.926l-1.134-.513a.957.957 0 00-1.224.396L1.16 6.41c-.248.43-.13.97.27 1.258l1.012.727c-.14.408-.252.83-.335 1.261l-1.242.125a.957.957 0 00-.864.954v1.529c0 .494.371.904.862.953l1.242.125c.084.43.197.853.336 1.261l-1.012.727a.956.956 0 00-.27 1.258l.763 1.323a.955.955 0 001.224.395l1.133-.512c.286.329.597.64.926.926l-.512 1.134a.957.957 0 00.395 1.223l1.323.764c.43.248.97.132 1.258-.27l.727-1.012c.408.14.83.252 1.261.335l.125 1.242c.05.492.46.863.955.863h1.529a.955.955 0 00.953-.863l.125-1.242c.43-.083.853-.196 1.261-.335l.727 1.012c.289.4.828.517 1.258.27l1.323-.764a.956.956 0 00.395-1.223l-.512-1.133c.329-.287.64-.597.926-.926l1.134.512a.956.956 0 001.223-.395l.764-1.323a.956.956 0 00-.27-1.258l-1.012-.727c.14-.408.252-.83.335-1.261l1.242-.125a.958.958 0 00.863-.955v-1.529a.955.955 0 00-.863-.952zM11.5 4.792c3.372 0 6.164 2.504 6.632 5.75h-4.44A2.397 2.397 0 0011.5 9.104c-.09 0-.174.017-.262.027L9.013 5.275a6.668 6.668 0 012.487-.483zM4.792 11.5a6.697 6.697 0 012.562-5.264l2.223 3.849a2.379 2.379 0 00-.473 1.415c0 .531.18 1.017.473 1.415l-2.223 3.848A6.695 6.695 0 014.792 11.5zm6.708 6.708a6.647 6.647 0 01-2.487-.484l2.226-3.855c.087.01.172.027.261.027.98 0 1.822-.593 2.193-1.438h4.439c-.468 3.246-3.26 5.75-6.632 5.75z"/></symbol><symbol viewBox="0 0 21 13" id="vk" xmlns="http://www.w3.org/2000/svg"><path d="M20.806 11.115c0-.083-.083-.083-.083-.166-.332-.664-1.08-1.494-2.075-2.407-.499-.416-.748-.748-.914-.914-.249-.332-.249-.58-.166-.913.083-.249.415-.664.996-1.411.333-.415.499-.665.748-.914 1.245-1.66 1.826-2.74 1.66-3.237l-.083-.084c-.083-.083-.166-.166-.332-.166-.166-.083-.415-.083-.664 0h-3.736l-.083.083c-.083.083-.083.083-.083.167-.332.913-.747 1.66-1.162 2.49-.25.415-.499.83-.748 1.163-.249.332-.415.58-.58.747-.167.166-.333.249-.416.415-.083.083-.25.166-.25.083-.082 0-.165 0-.165-.083l-.25-.25c-.082-.082-.082-.248-.165-.414V1.153c0-.084-.083-.25-.083-.333l-.25-.249c-.082-.083-.248-.083-.331-.166A7.447 7.447 0 0010.096.24c-1.328 0-2.241.083-2.574.25-.166.082-.332.165-.415.331-.166.166-.166.25-.083.25.415.083.748.249.914.498l.083.166c.083.083.083.249.166.498s.083.498.083.83V4.39c0 .416-.083.665-.083.914s-.083.415-.166.498c-.083.166-.083.249-.166.249 0 0 0 .083-.083.083s-.167.083-.333.083c-.083 0-.249-.083-.332-.166a1 1 0 01-.415-.415c-.166-.166-.332-.415-.498-.747-.166-.333-.415-.665-.581-1.163l-.166-.332c-.083-.166-.25-.498-.415-.913-.166-.415-.332-.747-.498-1.162a1.146 1.146 0 00-.25-.333h-.082S4.119.903 4.035.903C3.952.903 3.87.82 3.786.82H.798C.466.82.299.903.216.986l-.083.083v.167c0 .083 0 .166.083.332.416.996.914 1.992 1.412 2.988.498.914.996 1.744 1.328 2.325.415.581.747 1.162 1.163 1.66.415.499.664.83.747.997l.332.332.249.249c.166.166.415.415.747.664.332.25.747.498 1.162.747.416.25.914.415 1.412.582.581.166 1.08.249 1.577.166h1.246a.747.747 0 00.58-.25l.084-.083c0-.082.083-.082.083-.166v-.332c0-.332 0-.58.083-.83.083-.249.083-.415.166-.581.083-.166.166-.25.249-.332l.166-.166h.083c.166-.083.415 0 .581.166.25.166.498.415.664.664.166.25.415.498.748.83.332.332.58.581.747.665l.249.165c.166.083.332.167.581.25.25.083.415.083.581.083l2.823-.083c.249 0 .498-.083.664-.167.166-.083.25-.166.25-.332v-.332c-.167-.166-.167-.249-.167-.332z"/></symbol></svg>