<svg width="50" height="50" viewBox="0 0 50 50" fill="none" xmlns="http://www.w3.org/2000/svg">
<path d="M21.5426 43.179V30.391C21.5426 29.9502 21.1854 29.5931 20.7447 29.5931H15.4255C14.9848 29.5931 14.6277 29.9502 14.6277 30.391C14.6277 30.8317 14.9848 31.1888 15.4255 31.1888H19.9468V43.179C18.4239 43.5403 17.2872 44.9107 17.2872 46.5426C17.2872 48.449 18.8382 50 20.7447 50C22.6512 50 24.2021 48.449 24.2021 46.5426C24.2021 44.9107 23.0654 43.5403 21.5426 43.179ZM20.7447 48.4043C19.7182 48.4043 18.883 47.569 18.883 46.5426C18.883 45.5161 19.7182 44.6809 20.7447 44.6809C21.7712 44.6809 22.6064 45.5161 22.6064 46.5426C22.6064 47.569 21.7712 48.4043 20.7447 48.4043Z" fill="#DB0000"/>
<path d="M30.0532 43.179V30.391C30.0532 29.9502 29.6961 29.5931 29.2553 29.5931H23.9363C23.4955 29.5931 23.1384 29.9502 23.1384 30.391C23.1384 30.8317 23.4955 31.1888 23.9363 31.1888H28.4574V43.179C26.9346 43.5403 25.7979 44.9107 25.7979 46.5426C25.7979 48.449 27.3488 50 29.2553 50C31.1618 50 32.7128 48.449 32.7128 46.5426C32.7128 44.9107 31.5761 43.5403 30.0532 43.179ZM29.2553 48.4043C28.2288 48.4043 27.3936 47.569 27.3936 46.5426C27.3936 45.5161 28.2288 44.6809 29.2553 44.6809C30.2818 44.6809 31.117 45.5161 31.117 46.5426C31.117 47.569 30.2818 48.4043 29.2553 48.4043Z" fill="#DB0000"/>
<path d="M43.617 37.766C41.9852 37.766 40.6148 38.9027 40.2535 40.4255H38.5638V30.391C38.5638 29.9502 38.2067 29.5931 37.766 29.5931H32.4468C32.0061 29.5931 31.6489 29.9502 31.6489 30.391C31.6489 30.8317 32.0061 31.1888 32.4468 31.1888H36.9681V41.2234C36.9681 41.6642 37.3252 42.0213 37.766 42.0213H40.2535C40.6148 43.5441 41.9852 44.6809 43.617 44.6809C45.5235 44.6809 47.0745 43.1299 47.0745 41.2234C47.0745 39.3169 45.5235 37.766 43.617 37.766ZM43.617 43.0851C42.5905 43.0851 41.7553 42.2499 41.7553 41.2234C41.7553 40.1969 42.5905 39.3617 43.617 39.3617C44.6435 39.3617 45.4787 40.1969 45.4787 41.2234C45.4787 42.2499 44.6435 43.0851 43.617 43.0851Z" fill="#DB0000"/>
<path d="M48.1001 17.1869C47.0248 15.8518 45.5643 14.8627 43.9392 14.358C43.7562 10.5811 42.1891 7.05713 39.4881 4.37862C36.6406 1.555 32.864 0 28.8538 0C23.5878 0 18.7149 2.74596 15.9745 7.21138C15.3081 7.00128 14.6154 6.89521 13.907 6.89521C10.6478 6.89521 7.845 9.19585 7.16915 12.3319C2.9834 13.4178 0 17.2328 0 21.6065C0 26.8902 4.29851 31.1888 9.58223 31.1888H11.4362V40.4255H9.74649C9.38521 38.9027 8.01479 37.766 6.38298 37.766C4.47649 37.766 2.92553 39.3169 2.92553 41.2234C2.92553 43.1299 4.47649 44.6809 6.38298 44.6809C8.01479 44.6809 9.38521 43.5442 9.74649 42.0213H12.234C12.6748 42.0213 13.0319 41.6642 13.0319 41.2234V30.391C13.0319 29.9502 12.6748 29.5931 12.234 29.5931H9.58223C5.17851 29.5931 1.59574 26.0103 1.59574 21.6065C1.59574 17.8062 4.29734 14.512 8.01947 13.7738C8.35511 13.7073 8.61106 13.4341 8.65543 13.0948C8.99894 10.4702 11.2566 8.49106 13.907 8.49106C14.6362 8.49106 15.3433 8.63713 16.0087 8.92511C16.386 9.0884 16.8252 8.93841 17.0239 8.57894C19.4052 4.27149 23.9382 1.59574 28.8538 1.59574C36.2351 1.59574 42.2943 7.59979 42.3609 14.98C42.3642 15.3487 42.6197 15.667 42.9788 15.7501C46.1733 16.4894 48.4044 19.2981 48.4044 22.5802C48.4044 26.4471 45.2585 29.5931 41.3916 29.5931H40.9574C40.5167 29.5931 40.1596 29.9502 40.1596 30.391C40.1596 30.8317 40.5167 31.1888 40.9574 31.1888H41.3915C46.1382 31.1888 50 27.327 50 22.5802C50 20.6233 49.3252 18.7079 48.1001 17.1869ZM6.38298 43.0851C5.35649 43.0851 4.52128 42.2499 4.52128 41.2234C4.52128 40.1969 5.35649 39.3617 6.38298 39.3617C7.40947 39.3617 8.24468 40.1969 8.24468 41.2234C8.24468 42.2499 7.40947 43.0851 6.38298 43.0851Z" fill="#DB0000"/>
<path d="M38.9034 15.809H38.9107C39.3514 15.805 39.7053 15.4446 39.7014 15.0039C39.6894 13.6897 39.4414 12.4036 38.964 11.1815C38.8036 10.7711 38.3411 10.5682 37.9305 10.7285C37.52 10.8888 37.3172 11.3515 37.4776 11.762C37.8841 12.8029 38.0954 13.8985 38.1055 15.0184C38.1097 15.4567 38.4661 15.809 38.9034 15.809Z" fill="#DB0000"/>
<path d="M35.987 9.22936C36.1448 9.42043 36.3728 9.51915 36.6026 9.51915C36.7816 9.51915 36.9616 9.45926 37.1102 9.33638C37.4499 9.05575 37.4979 8.55287 37.2173 8.21309C35.1396 5.69787 32.0912 4.25532 28.8539 4.25532C28.4132 4.25532 28.0561 4.61245 28.0561 5.05319C28.0561 5.49394 28.4132 5.85106 28.8539 5.85106C31.6135 5.85106 34.2134 7.08234 35.987 9.22936Z" fill="#DB0000"/>
</svg>
