<svg width="50" height="50" viewBox="0 0 50 50" fill="none" xmlns="http://www.w3.org/2000/svg">
<path d="M15.7629 39.307C15.7629 39.769 15.9939 40 16.4559 40H23.6169C24.0789 40 24.3099 39.769 24.3099 39.307V38.887C24.3099 38.425 24.0789 38.194 23.6169 38.194H21.0549V25.867C21.0549 25.405 20.8239 25.174 20.3619 25.174H19.6899C19.3749 25.174 19.0809 25.279 18.8499 25.51L16.1619 28.135C15.8259 28.45 15.8259 28.786 16.1619 29.122L16.4559 29.416C16.7499 29.752 17.0649 29.752 17.4219 29.437L18.3669 28.513C18.6819 28.198 18.8919 27.946 19.0179 27.715H19.0599L19.0389 28.618V38.194H16.4559C15.9939 38.194 15.7629 38.425 15.7629 38.887V39.307ZM25.5646 39.307C25.5646 39.769 25.8166 40 26.2996 40H34.5316C34.9936 40 35.2246 39.769 35.2246 39.307V38.887C35.2246 38.425 34.9936 38.194 34.5316 38.194H27.8326C27.9376 34.834 34.9936 34.036 34.9936 29.185C34.9936 27.904 34.5526 26.875 33.6706 26.098C32.8096 25.321 31.6756 24.922 30.3106 24.922C28.2106 24.922 26.8036 25.993 25.9846 27.148C25.7536 27.505 25.8166 27.82 26.1736 28.093L26.5516 28.387C26.8666 28.66 27.2026 28.597 27.5386 28.24C28.2526 27.337 29.1346 26.875 30.1636 26.875C31.7386 26.875 32.8306 27.883 32.8306 29.332C32.8306 31.054 31.0246 32.146 29.1976 33.427C27.9376 34.351 26.8246 35.149 26.0896 36.577C25.7326 37.27 25.5646 38.047 25.5646 38.866V39.307Z" fill="#DB0000"/>
<path d="M44.7917 50H5.20833C2.33541 50 -7.62939e-06 47.6625 -7.62939e-06 44.7917V9.375C-7.62939e-06 6.50417 2.33541 4.16667 5.20833 4.16667H44.7917C47.6646 4.16667 50 6.50417 50 9.375V44.7917C50 47.6625 47.6646 50 44.7917 50ZM5.20833 6.25C3.48541 6.25 2.08333 7.65209 2.08333 9.375V44.7917C2.08333 46.5146 3.48541 47.9167 5.20833 47.9167H44.7917C46.5146 47.9167 47.9167 46.5146 47.9167 44.7917V9.375C47.9167 7.65209 46.5146 6.25 44.7917 6.25H5.20833Z" fill="#DB0000"/>
<path d="M48.9583 18.75H1.04166C0.466659 18.75 -7.62939e-06 18.2833 -7.62939e-06 17.7083C-7.62939e-06 17.1333 0.466659 16.6667 1.04166 16.6667H48.9583C49.5333 16.6667 50 17.1333 50 17.7083C50 18.2833 49.5333 18.75 48.9583 18.75Z" fill="#DB0000"/>
<path d="M11.4583 10.4167C10.8833 10.4167 10.4167 9.94999 10.4167 9.37499V1.04166C10.4167 0.466659 10.8833 -7.62939e-06 11.4583 -7.62939e-06C12.0333 -7.62939e-06 12.5 0.466659 12.5 1.04166V9.37499C12.5 9.94999 12.0333 10.4167 11.4583 10.4167Z" fill="#DB0000"/>
<path d="M38.5417 10.4167C37.9667 10.4167 37.5 9.94999 37.5 9.37499V1.04166C37.5 0.466659 37.9667 -7.62939e-06 38.5417 -7.62939e-06C39.1167 -7.62939e-06 39.5833 0.466659 39.5833 1.04166V9.37499C39.5833 9.94999 39.1167 10.4167 38.5417 10.4167Z" fill="#DB0000"/>
</svg>
