<svg width="55" height="49" viewBox="0 0 55 49" fill="none" xmlns="http://www.w3.org/2000/svg">
<path d="M52.9521 24.6022L49.6526 14.2757C48.828 12.1575 46.7918 10.7591 44.5187 10.75H37.9958L35.9009 4.19904C35.0823 2.07756 33.0464 0.675251 30.7725 0.66666H10.4775C8.18682 0.679839 6.14115 2.10324 5.33261 4.24652L2.04792 14.5189C0.844229 14.8355 0.00390136 15.922 0 17.1667V28.1667C0.00166715 29.6848 1.23191 30.915 2.75 30.9167H3.66667V35.5C3.66833 37.0181 4.89857 38.2483 6.41666 38.25H9.16666C10.6848 38.2483 11.915 37.0181 11.9167 35.5V30.9167H13.75V38.25C13.7517 39.7681 14.9819 40.9983 16.5 41H17.4167V45.5833C17.4183 47.1014 18.6486 48.3317 20.1667 48.3333H22.9167C24.4348 48.3317 25.665 47.1014 25.6667 45.5833V41H43.0833V45.5833C43.085 47.1014 44.3152 48.3317 45.8333 48.3333H48.5833C50.1014 48.3317 51.3316 47.1014 51.3333 45.5833V41H52.25C53.7681 40.9983 54.9983 39.7681 55 38.25V27.25C54.9961 26.0053 54.1558 24.9188 52.9521 24.6022ZM47.9233 14.8835L50.995 24.5H47.8351L45.3947 15.9971C45.2817 15.6041 44.9222 15.3334 44.5133 15.3333H24.2367C23.8278 15.3334 23.4683 15.6041 23.3554 15.9971L20.9148 24.5H17.755L20.564 15.7009C20.5702 15.687 20.5724 15.6719 20.5779 15.6575L20.809 14.9333C21.3586 13.5213 22.716 12.5891 24.2313 12.5833H44.5187C46.0162 12.5849 47.363 13.4948 47.9233 14.8835ZM45.9274 24.5H22.8226L24.9273 17.1667H43.8227L45.9274 24.5ZM19.08 14.3258L19.0509 14.4167H9.07261L11.1773 7.08333H30.0736L31.1308 10.75H24.2313C21.9405 10.7638 19.8939 12.1845 19.08 14.3258ZM7.06255 4.85253C7.60734 3.43957 8.96316 2.50555 10.4775 2.49999H30.7725C32.2701 2.5012 33.616 3.41409 34.171 4.80504L36.0713 10.75H33.0389L31.6442 5.91284C31.5311 5.52027 31.1719 5.24995 30.7633 5.24999H10.4867C10.0778 5.25006 9.71834 5.52079 9.60538 5.91375L7.16485 14.4167H4.00583L7.06255 4.85253ZM10.0833 35.5C10.0827 36.006 9.67265 36.416 9.16666 36.4167H6.41666C5.91068 36.416 5.50065 36.006 5.5 35.5V30.9167H10.0833V35.5ZM2.75 29.0833C2.24401 29.0827 1.83399 28.6726 1.83333 28.1667V17.1667C1.83399 16.6607 2.24401 16.2507 2.75 16.25H18.4653L15.7978 24.6022C14.5941 24.9189 13.7539 26.0054 13.75 27.25V29.0833H2.75ZM23.8333 45.5833C23.8327 46.0893 23.4226 46.4993 22.9167 46.5H20.1667C19.6607 46.4993 19.2507 46.0893 19.25 45.5833V41H23.8333V45.5833ZM49.5 45.5833C49.4993 46.0893 49.0893 46.4993 48.5833 46.5H45.8333C45.3273 46.4993 44.9173 46.0893 44.9167 45.5833V41H49.5V45.5833ZM53.1666 38.25C53.166 38.756 52.756 39.166 52.25 39.1667H16.5C15.994 39.166 15.584 38.756 15.5833 38.25V27.25C15.584 26.744 15.994 26.334 16.5 26.3333H47.1411L47.1439 26.3338L47.1471 26.3333H52.25C52.756 26.334 53.166 26.744 53.1666 27.25V38.25Z" fill="#DB0000"/>
<path d="M21.5417 29.0833C19.7698 29.0833 18.3333 30.5198 18.3333 32.2917C18.3333 34.0636 19.7698 35.5 21.5417 35.5C23.3136 35.5 24.75 34.0636 24.75 32.2917C24.7479 30.5206 23.3127 29.0855 21.5417 29.0833ZM21.5417 33.6667C20.9855 33.6667 20.4842 33.3317 20.2713 32.8179C20.0585 32.3041 20.1762 31.7126 20.5694 31.3194C20.9626 30.9261 21.5541 30.8085 22.0679 31.0213C22.5817 31.2342 22.9167 31.7355 22.9167 32.2917C22.9158 33.0507 22.3007 33.6658 21.5417 33.6667Z" fill="#DB0000"/>
<path d="M47.2083 29.0833C45.4364 29.0833 44 30.5198 44 32.2917C44 34.0636 45.4364 35.5 47.2083 35.5C48.9802 35.5 50.4167 34.0636 50.4167 32.2917C50.4145 30.5206 48.9794 29.0855 47.2083 29.0833ZM47.2083 33.6667C46.4489 33.6667 45.8333 33.0511 45.8333 32.2917C45.8333 31.5323 46.4489 30.9167 47.2083 30.9167C47.9677 30.9167 48.5833 31.5323 48.5833 32.2917C48.5825 33.0507 47.9674 33.6658 47.2083 33.6667Z" fill="#DB0000"/>
<path d="M7.79167 19C6.01975 19 4.58333 20.4364 4.58333 22.2083C4.58333 23.9803 6.01975 25.4167 7.79167 25.4167C9.56358 25.4167 11 23.9803 11 22.2083C10.9979 20.4373 9.5627 19.0021 7.79167 19ZM7.79167 23.5833C7.03227 23.5833 6.41667 22.9677 6.41667 22.2083C6.41667 21.4489 7.03227 20.8333 7.79167 20.8333C8.55106 20.8333 9.16667 21.4489 9.16667 22.2083C9.16581 22.9674 8.5507 23.5825 7.79167 23.5833Z" fill="#DB0000"/>
</svg>
