<?xml version="1.0" encoding="iso-8859-1"?>
<!-- Generator: Adobe Illustrator 19.0.0, SVG Export Plug-In . SVG Version: 6.00 Build 0)  -->
<svg version="1.1" id="Capa_1" xmlns="http://www.w3.org/2000/svg" xmlns:xlink="http://www.w3.org/1999/xlink" x="0px" y="0px"
	 viewBox="0 0 512 512" style="enable-background:new 0 0 512 512;" xml:space="preserve">
<g>
	<g>
		<path d="M497,270.467h-53.787l-46.819-46.82c-8.499-8.5-19.8-13.18-31.82-13.18H147.427c-12.021,0-23.321,4.681-31.82,13.18
			l-46.819,46.82H15c-8.284,0-15,6.716-15,15v120c0,8.284,6.716,15,15,15h53.787l46.819,46.82c8.499,8.499,19.8,13.18,31.82,13.18
			h217.146c12.021,0,23.321-4.681,31.82-13.18l46.819-46.82H497c8.284,0,15-6.716,15-15v-120
			C512,277.183,505.284,270.467,497,270.467z M60,390.467H30v-90h30V390.467z M120,429.255l-30-30.001V291.681l30-30V429.255z
			 M362,450.467H150v-210h212V450.467z M422,399.254l-30,30.001V261.68l30,30V399.254z M482,390.467h-30v-90h30V390.467z"/>
	</g>
</g>
<g>
	<g>
		<path d="M189.07,119.015c30.305-20.202,30.281-64.775,0-84.961c-6.893-4.595-16.206-2.733-20.801,4.16
			c-4.596,6.893-2.733,16.206,4.16,20.801c12.517,8.346,12.535,26.681,0,35.039c-30.305,20.202-30.281,64.774,0,84.961
			c6.896,4.597,16.209,2.73,20.801-4.16c4.596-6.893,2.733-16.206-4.16-20.801C176.553,145.708,176.535,127.373,189.07,119.015z"/>
	</g>
</g>
<g>
	<g>
		<path d="M266.07,119.015c30.305-20.202,30.281-64.775,0-84.961c-6.893-4.595-16.206-2.733-20.801,4.16
			c-4.596,6.893-2.733,16.206,4.16,20.801c12.517,8.346,12.535,26.681,0,35.039c-30.305,20.202-30.281,64.774,0,84.961
			c6.896,4.597,16.209,2.73,20.801-4.16c4.596-6.893,2.733-16.206-4.16-20.801C253.553,145.708,253.535,127.373,266.07,119.015z"/>
	</g>
</g>
<g>
	<g>
		<path d="M341.07,119.015c30.305-20.202,30.281-64.775,0-84.961c-6.894-4.595-16.207-2.733-20.801,4.16
			c-4.596,6.893-2.733,16.206,4.16,20.801c12.517,8.346,12.535,26.681,0,35.039c-30.305,20.202-30.281,64.774,0,84.961
			c6.896,4.597,16.209,2.73,20.801-4.16c4.596-6.893,2.733-16.206-4.16-20.801C328.553,145.708,328.535,127.373,341.07,119.015z"/>
	</g>
</g>
<g>
	<g>
		<path d="M195,270.467c-8.284,0-15,6.716-15,15v120c0,8.284,6.716,15,15,15s15-6.716,15-15v-120
			C210,277.183,203.284,270.467,195,270.467z"/>
	</g>
</g>
<g>
	<g>
		<path d="M257,270.467c-8.284,0-15,6.716-15,15v120c0,8.284,6.716,15,15,15s15-6.716,15-15v-120
			C272,277.183,265.284,270.467,257,270.467z"/>
	</g>
</g>
<g>
	<g>
		<path d="M317,270.467c-8.284,0-15,6.716-15,15v120c0,8.284,6.716,15,15,15s15-6.716,15-15v-120
			C332,277.183,325.284,270.467,317,270.467z"/>
	</g>
</g>
<g>
</g>
<g>
</g>
<g>
</g>
<g>
</g>
<g>
</g>
<g>
</g>
<g>
</g>
<g>
</g>
<g>
</g>
<g>
</g>
<g>
</g>
<g>
</g>
<g>
</g>
<g>
</g>
<g>
</g>
</svg>
