<svg width="50" height="46" viewBox="0 0 50 46" fill="none" xmlns="http://www.w3.org/2000/svg">
<path d="M47.2881 0.246094H2.71187C1.21651 0.246094 0 1.4626 0 2.95796V12.777C0 13.1852 0.331116 13.5167 0.73967 13.5167C1.14822 13.5167 1.47934 13.1852 1.47934 12.777V2.95796C1.47934 2.27856 2.03247 1.72543 2.71187 1.72543H47.2881C47.9679 1.72543 48.5207 2.27856 48.5207 2.95796V32.544C48.5207 33.2238 47.9675 33.7765 47.2881 33.7765H31.9748C32.0248 33.4385 32.0511 33.0929 32.0511 32.7408C32.0511 32.3891 32.0248 32.0435 31.9748 31.7055H41.568C41.9765 31.7055 42.3077 31.3744 42.3077 30.9659C42.3077 29.0898 43.8339 27.5635 45.71 27.5635C46.1185 27.5635 46.4497 27.2324 46.4497 26.8239V14.2418C46.4497 13.8333 46.1185 13.5022 45.71 13.5022C45.3014 13.5022 44.9703 13.8333 44.9703 14.2418V26.1403C42.8696 26.4611 41.2048 28.1254 40.8844 30.2262H31.5861C30.571 27.5769 28.0022 25.6897 25 25.6897C21.9978 25.6897 19.429 27.5769 18.4139 30.2262H9.1156C8.79517 28.1254 7.13043 26.4611 5.02968 26.1403V9.36169C7.13043 9.04088 8.79517 7.37653 9.1156 5.27577H40.8844C41.2052 7.37653 42.8696 9.04088 44.9703 9.36169V10.7922C44.9703 11.2008 45.3018 11.5319 45.71 11.5319C46.1185 11.5319 46.4497 11.2008 46.4497 10.7922V8.6781C46.4497 8.26955 46.1185 7.93843 45.71 7.93843C43.8339 7.93843 42.3077 6.41217 42.3077 4.5361C42.3077 4.12755 41.9765 3.79643 41.568 3.79643H8.43201C8.02345 3.79643 7.69234 4.12755 7.69234 4.5361C7.69234 6.41217 6.16608 7.93843 4.29001 7.93843C3.88145 7.93843 3.55034 8.26955 3.55034 8.6781V26.8239C3.55034 27.2324 3.88145 27.5635 4.29001 27.5635C6.16608 27.5635 7.69234 29.0898 7.69234 30.9659C7.69234 31.3744 8.02345 31.7055 8.43201 31.7055H18.0252C17.9752 32.0439 17.9489 32.3895 17.9489 32.7412C17.9489 33.0929 17.9752 33.4385 18.0252 33.7769H2.71187C2.03209 33.7769 1.47934 33.2238 1.47934 32.544V16.2163C1.47934 15.8078 1.14822 15.4767 0.73967 15.4767C0.331116 15.4767 0 15.8078 0 16.2163V32.544C0 34.0394 1.21651 35.2559 2.71187 35.2559H18.4139C18.6634 35.9074 19.0071 36.5124 19.4279 37.0549V44.97C19.4279 45.2164 19.5507 45.4464 19.7552 45.5838C19.9596 45.7211 20.219 45.7478 20.4472 45.6547L25 43.7962L29.5528 45.6547C29.6429 45.6913 29.7379 45.7097 29.8321 45.7097C29.977 45.7097 30.1212 45.6669 30.2448 45.5838C30.4493 45.4464 30.5721 45.2164 30.5721 44.97V42.8544C30.5721 42.4458 30.2406 42.1147 29.8325 42.1147C29.4239 42.1147 29.0928 42.4458 29.0928 42.8544V43.8691L25.2796 42.3127C25.1003 42.2398 24.8997 42.2398 24.7204 42.3127L20.9072 43.8691V38.4778C22.0623 39.304 23.4749 39.7923 25 39.7923C26.5251 39.7923 27.9377 39.304 29.0928 38.4778V39.3979C29.0928 39.8064 29.4239 40.1375 29.8325 40.1375C30.2406 40.1375 30.5721 39.8064 30.5721 39.3979V37.0549C30.9929 36.5124 31.3366 35.9074 31.5861 35.2559H47.2881C48.7835 35.2559 50 34.0394 50 32.544V2.95796C50 1.4626 48.7835 0.246094 47.2881 0.246094ZM25 38.313C21.9276 38.313 19.4279 35.8136 19.4279 32.7412C19.4279 29.6689 21.9276 27.1691 25 27.1691C28.0724 27.1691 30.5721 29.6689 30.5721 32.7412C30.5721 35.8136 28.0724 38.313 25 38.313Z" fill="#DB0000"/>
<path d="M31.509 10.0094C31.9176 10.0094 32.2487 9.67831 32.2487 9.26976C32.2487 8.86121 31.9176 8.53009 31.509 8.53009H18.491C18.0824 8.53009 17.7513 8.86121 17.7513 9.26976C17.7513 9.67831 18.0824 10.0094 18.491 10.0094H31.509Z" fill="#DB0000"/>
<path d="M36.4399 12.4749H13.5601C13.1516 12.4749 12.8204 12.806 12.8204 13.2145C12.8204 13.6231 13.1516 13.9542 13.5601 13.9542H36.4399C36.8484 13.9542 37.1796 13.6231 37.1796 13.2145C37.1796 12.806 36.8484 12.4749 36.4399 12.4749Z" fill="#DB0000"/>
<path d="M36.4399 16.4196H13.5601C13.1516 16.4196 12.8204 16.7508 12.8204 17.1593C12.8204 17.5679 13.1516 17.899 13.5601 17.899H36.4399C36.8484 17.899 37.1796 17.5679 37.1796 17.1593C37.1796 16.7508 36.8484 16.4196 36.4399 16.4196Z" fill="#DB0000"/>
<path d="M36.4399 20.9561H32.8896C32.481 20.9561 32.1499 21.2872 32.1499 21.6958C32.1499 22.1043 32.481 22.4354 32.8896 22.4354H36.4399C36.8484 22.4354 37.1796 22.1043 37.1796 21.6958C37.1796 21.2872 36.8484 20.9561 36.4399 20.9561Z" fill="#DB0000"/>
<path d="M13.5601 20.9561C13.1516 20.9561 12.8204 21.2872 12.8204 21.6958C12.8204 22.1043 13.1516 22.4354 13.5601 22.4354H17.1104C17.519 22.4354 17.8501 22.1043 17.8501 21.6958C17.8501 21.2872 17.519 20.9561 17.1104 20.9561H13.5601Z" fill="#DB0000"/>
<path d="M25 28.8456C22.8519 28.8456 21.1044 30.5932 21.1044 32.7412C21.1044 34.8893 22.8519 36.6368 25 36.6368C27.1481 36.6368 28.8956 34.8893 28.8956 32.7412C28.8956 30.5932 27.1481 28.8456 25 28.8456ZM25 35.1574C23.6675 35.1574 22.5838 34.0733 22.5838 32.7412C22.5838 31.4087 23.6675 30.325 25 30.325C26.3325 30.325 27.4162 31.4087 27.4162 32.7412C27.4162 34.0733 26.3325 35.1574 25 35.1574Z" fill="#DB0000"/>
<path d="M22.4854 21.6958C22.4854 23.0824 23.6134 24.2104 25 24.2104C26.3866 24.2104 27.5146 23.0824 27.5146 21.6958C27.5146 20.3091 26.3866 19.1811 25 19.1811C23.6134 19.1811 22.4854 20.3091 22.4854 21.6958ZM26.0357 21.6958C26.0357 22.2668 25.5711 22.7314 25 22.7314C24.4289 22.7314 23.9643 22.2668 23.9643 21.6958C23.9643 21.1247 24.4289 20.6601 25 20.6601C25.5711 20.6601 26.0357 21.1247 26.0357 21.6958Z" fill="#DB0000"/>
</svg>
