<svg width="46" height="44" viewBox="0 0 46 44" fill="none" xmlns="http://www.w3.org/2000/svg">
<path d="M45.0417 44H0.958333C0.429333 44 0 43.5715 0 43.0435C0 42.5155 0.429333 42.0869 0.958333 42.0869H45.0417C45.5707 42.0869 46 42.5155 46 43.0435C46 43.5715 45.5707 44 45.0417 44Z" fill="#DB0000"/>
<path d="M12.4584 44H2.87502C2.34602 44 1.91668 43.5715 1.91668 43.0435V32.5217C1.91668 31.4676 2.77727 30.6087 3.83335 30.6087H11.5C12.5561 30.6087 13.4167 31.4676 13.4167 32.5217V43.0435C13.4167 43.5715 12.9874 44 12.4584 44ZM3.83335 42.0869H11.5V32.5217H3.83335V42.0869Z" fill="#DB0000"/>
<path d="M27.7917 44H18.2083C17.6793 44 17.25 43.5715 17.25 43.0435V21.0435C17.25 19.9894 18.1106 19.1304 19.1667 19.1304H26.8333C27.8894 19.1304 28.75 19.9894 28.75 21.0435V43.0435C28.75 43.5715 28.3207 44 27.7917 44ZM19.1667 42.087H26.8333V21.0435H19.1667V42.087Z" fill="#DB0000"/>
<path d="M43.125 44H33.5417C33.0127 44 32.5834 43.5715 32.5834 43.0435V9.56521C32.5834 8.51113 33.444 7.65217 34.5 7.65217H42.1667C43.2228 7.65217 44.0834 8.51113 44.0834 9.56521V43.0435C44.0834 43.5715 43.654 44 43.125 44ZM34.5 42.0869H42.1667V9.56521H34.5V42.0869Z" fill="#DB0000"/>
<path d="M4.79168 19.1304C4.54635 19.1304 4.30101 19.0367 4.11318 18.8511C3.73943 18.4781 3.73943 17.8716 4.11318 17.4986L21.3632 0.281217C21.7369 -0.0918261 22.3445 -0.0918261 22.7183 0.281217C23.092 0.65426 23.092 1.26069 22.7183 1.63374L5.46826 18.8511C5.28235 19.0367 5.03701 19.1304 4.79168 19.1304Z" fill="#DB0000"/>
<path d="M22.0417 9.56521C21.5127 9.56521 21.0834 9.13669 21.0834 8.60869V1.91304H14.375C13.846 1.91304 13.4167 1.48452 13.4167 0.956521C13.4167 0.428522 13.846 0 14.375 0H22.0417C22.5707 0 23 0.428522 23 0.956521V8.60869C23 9.13669 22.5707 9.56521 22.0417 9.56521Z" fill="#DB0000"/>
</svg>
