<svg width="50" height="55" viewBox="0 0 50 55" fill="none" xmlns="http://www.w3.org/2000/svg">
<path d="M45.4546 33.3999V4.54549C45.4546 3 44.2728 1.81822 42.7273 1.81822H30.9092C30.9092 0.818182 30.091 0 29.091 0H16.3636C15.3636 0 14.5454 0.818182 14.5454 1.81822H2.72727C1.18178 1.81822 0 3 0 4.54549V51.8182C0 53.3637 1.18178 54.5455 2.72727 54.5455H38.1818C44.7273 54.5455 50 49.2728 50 42.7273C50.0001 38.929 48.2242 35.5595 45.4546 33.3999ZM42.7273 3.63633C43.2728 3.63633 43.6364 3.99993 43.6364 4.54539V32.2333C43.0571 31.9327 42.4493 31.6787 41.8182 31.4759V7.27277C41.8182 6.27273 41 5.45455 40 5.45455H30.9091V3.63633H42.7273ZM26.37 43.0972C26.3705 43.1152 26.3714 43.1332 26.372 43.1511C26.4484 45.3361 27.1122 47.367 28.2119 49.0909H5.45455V7.27277H14.5454C14.5454 8.2728 15.3636 9.09099 16.3636 9.09099H29.091C30.091 9.09099 30.9092 8.2728 30.9092 7.27277H40.0001V31.0472C39.8732 31.0278 39.7454 31.0109 39.6172 30.9955C39.6082 30.9944 39.5992 30.9935 39.5902 30.9924C39.49 30.9806 39.3894 30.97 39.2884 30.9607C39.263 30.9584 39.2376 30.9562 39.2121 30.954C39.1266 30.9467 39.0408 30.9403 38.9548 30.9349C38.9234 30.9328 38.892 30.9307 38.8607 30.9289C38.7774 30.9242 38.6938 30.9207 38.6101 30.9177C38.5795 30.9166 38.5491 30.9151 38.5185 30.9143C38.4066 30.9112 38.2946 30.9093 38.182 30.9093C31.6365 30.9093 26.3638 36.182 26.3638 42.7274C26.3637 42.8511 26.3662 42.9743 26.37 43.0972ZM16.3636 1.81822H29.091V7.27266H16.3636V1.81822ZM2.72727 52.7273C2.18182 52.7273 1.81822 52.3637 1.81822 51.8182V4.54549C1.81822 4.00004 2.18182 3.63644 2.72727 3.63644H14.5454V5.45455H5.45455C4.45451 5.45455 3.63633 6.27273 3.63633 7.27277V49.0909C3.63633 50.091 4.45451 50.9092 5.45455 50.9092H29.6407C30.3041 51.6016 31.0514 52.2128 31.8665 52.7274L2.72727 52.7273ZM38.1818 52.7273C35.2929 52.7273 32.7003 51.5178 30.8791 49.5755C30.8426 49.5005 30.7931 49.4294 30.7273 49.3637C29.1944 47.6604 28.2998 45.4785 28.1929 43.1916C28.1927 43.186 28.1925 43.1804 28.1922 43.1748C28.1855 43.026 28.1819 42.8768 28.1819 42.7272C28.1819 37.1818 32.6364 32.7272 38.182 32.7272C38.299 32.7272 38.4157 32.7299 38.5321 32.7339C38.5428 32.7342 38.5533 32.7348 38.564 32.7351C38.5903 32.736 38.6166 32.7375 38.6429 32.7387C38.7204 32.7422 38.7976 32.7468 38.8747 32.752C38.945 32.757 39.0153 32.7621 39.0855 32.7689C39.0953 32.7698 39.1051 32.7709 39.1148 32.7718C39.622 32.8229 40.1293 32.9217 40.6365 33.0909C40.7425 33.1263 40.8486 33.1334 40.9546 33.1191C41.9095 33.3954 42.834 33.8172 43.718 34.3865C46.4133 36.173 48.1819 39.2333 48.1819 42.7272C48.1819 48.2728 43.7274 52.7273 38.1818 52.7273Z" fill="#DB0000"/>
<path d="M44.1819 37.5455C43.7273 37.1819 43.1818 37.2728 42.9091 37.7274L37.8182 45L34.2728 42.0909C33.9092 41.7273 33.2727 41.8182 33 42.1818C32.6364 42.5454 32.7273 43.1818 33.0909 43.4545L37.4545 47C37.5454 47.0909 37.8181 47.1818 38 47.1818C38 47.1818 38.0909 47.1818 38.0909 47.2727C38.3636 47.2727 38.5455 47.0909 38.7272 46.9091L44.3636 38.8182C44.7273 38.3637 44.6364 37.8182 44.1819 37.5455Z" fill="#DB0000"/>
<path d="M30 30C31.6863 30 33.1142 28.8366 33.5205 27.2727H34.9091C36.2728 27.2727 37.2728 26.2727 37.3637 24.9091V21.3636C37.3637 20 36.2728 18.9999 35 18.9999H33.0636L29.5454 14.0908C29 13.2727 28.0909 12.8181 27.0909 12.8181H23.1571C23.0326 12.7595 22.8881 12.7272 22.7272 12.7272C22.5664 12.7272 22.422 12.7596 22.2974 12.8181H18.3636C17.3636 12.8181 16.4545 13.2727 15.9091 14.0908L12.3909 18.9999H10.5455C9.18186 18.9999 8.18182 20.0908 8.18182 21.3636V24.9091C8.18182 26.2727 9.18186 27.2727 10.5455 27.2727H11.9341C12.3404 28.8366 13.7682 30 15.4546 30C17.1409 30 18.5688 28.8366 18.9751 27.2727H26.4796C26.8859 28.8366 28.3137 30 30 30ZM30 28.1818C29 28.1818 28.1818 27.3636 28.1818 26.3636C28.1818 25.3635 29 24.5454 30 24.5454C31.0001 24.5454 31.8182 25.3636 31.8182 26.3637C31.8182 27.3637 31.0001 28.1818 30 28.1818ZM28.0001 15L30.8445 19H23.6364V14.5455H27C27.4546 14.5454 27.8182 14.7273 28.0001 15ZM17.2728 15C17.5455 14.7273 17.9091 14.5454 18.2728 14.5454H21.8183V18.9999H14.5173L17.2728 15ZM15.4546 28.1818C14.4546 28.1818 13.6364 27.3636 13.6364 26.3636C13.6364 25.3635 14.4546 24.5454 15.4546 24.5454C16.4546 24.5454 17.2728 25.3635 17.2728 26.3636C17.2728 27.3636 16.4546 28.1818 15.4546 28.1818ZM15.5455 22.7272C15.5288 22.7272 15.5125 22.7281 15.496 22.7283C15.4822 22.7282 15.4685 22.7272 15.4546 22.7272C13.7682 22.7272 12.3404 23.8907 11.9341 25.4545H10.5455C10.2728 25.4545 10 25.1818 10 24.9091V21.3636C10 21.0909 10.2728 20.8182 10.5455 20.8182H12.3184C12.439 20.8755 12.5746 20.909 12.7273 20.909H32.7273C32.88 20.909 33.0156 20.8755 33.1362 20.8182H35C35.2727 20.8182 35.5454 21.0909 35.5454 21.3636V24.9091C35.5454 25.1818 35.2727 25.4545 35 25.4545H33.5455C33.0909 23.909 31.9091 22.7272 30.1819 22.7272C30.1487 22.7272 30.1158 22.7285 30.0829 22.7294C30.0553 22.7287 30.0278 22.7272 30 22.7272C28.3136 22.7272 26.8858 23.8907 26.4795 25.4545H19.0909C18.6364 23.9091 17.2728 22.7272 15.5455 22.7272Z" fill="#DB0000"/>
<path d="M22.7274 34.5455H9.09099C8.54553 34.5455 8.18193 34.9091 8.18193 35.4546C8.18193 36 8.54553 36.3636 9.09099 36.3636H22.7274C23.2728 36.3636 23.6364 36 23.6364 35.4546C23.6364 34.9091 23.2728 34.5455 22.7274 34.5455Z" fill="#DB0000"/>
<path d="M22.7274 39.0909H9.09099C8.54553 39.0909 8.18193 39.4545 8.18193 40C8.18193 40.5455 8.54553 40.9091 9.09099 40.9091H22.7274C23.2728 40.9091 23.6364 40.5455 23.6364 40C23.6364 39.4545 23.2728 39.0909 22.7274 39.0909Z" fill="#DB0000"/>
<path d="M22.7274 43.6364H9.09099C8.54553 43.6364 8.18193 44 8.18193 44.5454C8.18193 45.0909 8.54553 45.4545 9.09099 45.4545H22.7274C23.2728 45.4545 23.6364 45.0909 23.6364 44.5454C23.6364 44 23.2728 43.6364 22.7274 43.6364Z" fill="#DB0000"/>
</svg>
