<svg width="23" height="23" viewBox="0 0 23 23" fill="none" xmlns="http://www.w3.org/2000/svg">
<path d="M14.1394 21.828C14.1394 22.4751 14.6643 23 15.3114 23C15.9584 23 16.4833 22.4751 16.4833 21.828V19.9358H14.1418V21.828H14.1394Z" fill="white"/>
<path d="M14.1394 1.17198V3.06424H16.4809V1.17198C16.4809 0.524949 15.9559 0 15.3089 0C14.6619 0 14.1394 0.524949 14.1394 1.17198Z" fill="white"/>
<path d="M10.328 1.17198V3.06424H12.672V1.17198C12.672 0.524949 12.147 0 11.5 0C10.853 0 10.328 0.524949 10.328 1.17198Z" fill="white"/>
<path d="M10.328 21.828C10.328 22.4751 10.853 23 11.5 23C12.147 23 12.672 22.4751 12.672 21.828V19.9358H10.328V21.828Z" fill="white"/>
<path d="M6.51911 1.17198V3.06424H8.86062V1.17198C8.86062 0.524949 8.33567 0 7.68864 0C7.04162 0 6.51911 0.524949 6.51911 1.17198Z" fill="white"/>
<path d="M6.51911 21.828C6.51911 22.4751 7.04406 23 7.69109 23C8.33811 23 8.86306 22.4751 8.86306 21.828V19.9358H6.51911V21.828Z" fill="white"/>
<path d="M0 15.3089C0 15.9559 0.524949 16.4809 1.17198 16.4809H3.06424V14.1394H1.17198C0.524949 14.1394 0 14.6619 0 15.3089Z" fill="white"/>
<path d="M21.828 14.1394H19.9358V16.4809H21.828C22.4751 16.4809 23 15.9559 23 15.3089C23 14.6619 22.4751 14.1394 21.828 14.1394Z" fill="white"/>
<path d="M0 11.5C0 12.147 0.524949 12.672 1.17198 12.672H3.06424V10.328H1.17198C0.524949 10.328 0 10.853 0 11.5Z" fill="white"/>
<path d="M21.828 10.328H19.9358V12.672H21.828C22.4751 12.672 23 12.147 23 11.5C23 10.853 22.4751 10.328 21.828 10.328Z" fill="white"/>
<path d="M0 7.69108C0 8.33811 0.524949 8.86306 1.17198 8.86306H3.06424V6.51911H1.17198C0.524949 6.51911 0 7.04405 0 7.69108Z" fill="white"/>
<path d="M21.828 6.51911H19.9358V8.86061H21.828C22.4751 8.86061 23 8.33567 23 7.68864C23 7.04161 22.4751 6.51911 21.828 6.51911Z" fill="white"/>
<path d="M4.18981 17.5895C4.18981 18.2633 4.73673 18.8103 5.41062 18.8103H17.5894C18.2633 18.8103 18.8102 18.2633 18.8102 17.5895V5.41068C18.8102 4.7368 18.2633 4.18987 17.5894 4.18987H5.41062C4.73673 4.18987 4.18981 4.7368 4.18981 5.41068V17.5895Z" fill="white"/>
</svg>
