<svg width="18" height="18" viewBox="0 0 18 18" fill="none" xmlns="http://www.w3.org/2000/svg">
<path d="M8.99991 0C4.02943 0 0 4.02951 0 8.99976C0 13.97 4.02943 18 8.99985 18C13.9703 18 18 13.9702 18 8.99976C18 4.02933 13.9703 0 8.99991 0ZM9.6214 10.1003C9.62092 10.1239 9.61738 10.1476 9.61408 10.1713C9.61174 10.189 9.61066 10.2072 9.60664 10.2247C9.60262 10.2429 9.59572 10.2608 9.58984 10.279C9.58282 10.3009 9.57628 10.3228 9.5671 10.3435C9.56536 10.3471 9.56476 10.351 9.5632 10.3546C9.54964 10.3835 9.53392 10.4106 9.5167 10.4363C9.51562 10.4378 9.51418 10.4394 9.5131 10.441C9.49348 10.4698 9.4711 10.4959 9.44758 10.5205C9.44104 10.5272 9.43438 10.5333 9.42748 10.5396C9.40678 10.5594 9.385 10.5774 9.36184 10.5939C9.3547 10.5991 9.34786 10.6045 9.34036 10.6095C9.31066 10.6289 9.27952 10.646 9.24711 10.66C9.24009 10.6632 9.23277 10.665 9.22563 10.6678C9.19827 10.6784 9.17055 10.6872 9.14193 10.6938C9.13167 10.6963 9.12153 10.6985 9.11109 10.7004C9.07437 10.7071 9.03717 10.7117 8.99949 10.7117C8.99187 10.7117 8.98407 10.7094 8.97645 10.7091C8.94033 10.7077 8.90457 10.7049 8.87019 10.6975C8.85945 10.6952 8.84889 10.6905 8.83815 10.6876C8.80611 10.6789 8.77479 10.6692 8.7449 10.6558C8.74148 10.6541 8.73789 10.6538 8.73447 10.6522L5.28351 9.02448C4.97258 8.8779 4.83938 8.50692 4.98596 8.196C5.13255 7.88525 5.50353 7.75187 5.81446 7.89845L8.37746 9.1071V3.73497C8.37746 3.39122 8.65616 3.11252 8.99991 3.11252C9.34366 3.11252 9.62236 3.39122 9.62236 3.73497V10.0891C9.62236 10.0928 9.6214 10.0965 9.6214 10.1003Z" fill="#DB0000"/>
</svg>
