<svg width="51" height="52" viewBox="0 0 51 52" fill="none" xmlns="http://www.w3.org/2000/svg">
<path d="M50.4018 48.3055L45.8728 31.6852V7.73442C45.8708 7.05129 45.5985 6.39671 45.1155 5.91366C44.6324 5.43061 43.9779 5.15833 43.2947 5.15629H35.5346C34.3393 3.55584 32.787 2.25637 31.0012 1.36123C29.2154 0.466101 27.2454 0 25.2479 0C23.2503 0 21.2803 0.466101 19.4945 1.36123C17.7087 2.25637 16.1565 3.55584 14.9611 5.15629H7.20099C6.51785 5.15833 5.86328 5.43061 5.38023 5.91366C4.89718 6.39671 4.6249 7.05129 4.62286 7.73442V31.6852L0.0939568 48.3055C-0.0123848 48.6878 -0.0287085 49.0896 0.0462664 49.4792C0.121241 49.8689 0.285476 50.2359 0.526087 50.5514C0.766699 50.867 1.07715 51.1225 1.43308 51.2979C1.789 51.4733 2.18074 51.5639 2.57755 51.5625H47.9182C48.315 51.5639 48.7067 51.4733 49.0626 51.2979C49.4186 51.1225 49.729 50.867 49.9696 50.5514C50.2102 50.2359 50.3745 49.8689 50.4494 49.4792C50.5244 49.0896 50.5081 48.6878 50.4018 48.3055ZM25.2479 1.71879C27.4574 1.71879 29.6174 2.37401 31.4546 3.60159C33.2918 4.82918 34.7237 6.57398 35.5693 8.61538C36.4149 10.6568 36.6361 12.9031 36.2051 15.0702C35.774 17.2373 34.71 19.228 33.1476 20.7904C31.5851 22.3528 29.5945 23.4168 27.4274 23.8479C25.2603 24.2789 23.014 24.0577 20.9726 23.2121C18.9312 22.3666 17.1864 20.9346 15.9588 19.0974C14.7312 17.2602 14.076 15.1003 14.076 12.8907C14.0787 9.92854 15.2566 7.08852 17.3512 4.99398C19.4457 2.89943 22.2857 1.72152 25.2479 1.71879ZM6.34161 7.73442C6.34161 7.5065 6.43215 7.28791 6.59332 7.12675C6.75448 6.96558 6.97307 6.87504 7.20099 6.87504H13.8525C12.8137 8.83946 12.3003 11.0391 12.3622 13.2604C12.4242 15.4817 13.0593 17.6493 14.2059 19.5528C15.3526 21.4563 16.9718 23.0311 18.9065 24.1242C20.8412 25.2174 23.0257 25.7919 25.2479 25.7919C27.47 25.7919 29.6545 25.2174 31.5892 24.1242C33.5239 23.0311 35.1432 21.4563 36.2898 19.5528C37.4365 17.6493 38.0716 15.4817 38.1335 13.2604C38.1954 11.0391 37.682 8.83946 36.6432 6.87504H43.2947C43.5226 6.87504 43.7412 6.96558 43.9024 7.12675C44.0636 7.28791 44.1541 7.5065 44.1541 7.73442V30.9375H6.34161V7.73442ZM48.6057 49.5086C48.5252 49.6143 48.4211 49.6996 48.3017 49.7578C48.1823 49.816 48.051 49.8455 47.9182 49.8438H2.57755C2.44475 49.8455 2.3134 49.816 2.19401 49.7578C2.07463 49.6996 1.97053 49.6143 1.89005 49.5086C1.80972 49.402 1.75481 49.2785 1.72949 49.1474C1.70417 49.0164 1.70912 48.8812 1.74396 48.7524L6.13536 32.6563H44.3604L48.7518 48.7524C48.7866 48.8812 48.7915 49.0164 48.7662 49.1474C48.7409 49.2785 48.686 49.402 48.6057 49.5086Z" fill="#DB0000"/>
<path d="M32.9564 43.6202C32.9101 43.4342 32.8028 43.2691 32.6518 43.151C32.5007 43.033 32.3145 42.9688 32.1229 42.9688H18.3729C18.1812 42.9688 17.995 43.033 17.8439 43.151C17.6929 43.2691 17.5857 43.4342 17.5393 43.6202L16.6799 47.0577C16.6483 47.1844 16.646 47.3165 16.6731 47.4442C16.7002 47.5719 16.7561 47.6917 16.8364 47.7946C16.9168 47.8975 17.0195 47.9807 17.1368 48.038C17.2541 48.0952 17.3829 48.125 17.5135 48.125H32.9822C33.1128 48.125 33.2416 48.0952 33.3589 48.038C33.4762 47.9807 33.5789 47.8975 33.6593 47.7946C33.7396 47.6917 33.7955 47.5719 33.8226 47.4442C33.8497 47.3165 33.8474 47.1844 33.8158 47.0577L32.9564 43.6202ZM18.6143 46.4063L19.044 44.6875H31.4517L31.8814 46.4063H18.6143Z" fill="#DB0000"/>
<path d="M20.951 27.5H29.5447V29.2188H20.951V27.5Z" fill="#DB0000"/>
<path d="M8.06036 34.375H11.4979V36.0938H8.06036V34.375Z" fill="#DB0000"/>
<path d="M13.2166 34.375H16.6541V36.0938H13.2166V34.375Z" fill="#DB0000"/>
<path d="M18.3729 34.375H21.8104V36.0938H18.3729V34.375Z" fill="#DB0000"/>
<path d="M28.6854 34.375H32.1229V36.0938H28.6854V34.375Z" fill="#DB0000"/>
<path d="M33.8416 34.375H37.2791V36.0938H33.8416V34.375Z" fill="#DB0000"/>
<path d="M38.9979 34.375H42.4354V36.0938H38.9979V34.375Z" fill="#DB0000"/>
<path d="M23.5291 34.375H26.9666V36.0938H23.5291V34.375Z" fill="#DB0000"/>
<path d="M8.06036 37.8125H11.4979V39.5313H8.06036V37.8125Z" fill="#DB0000"/>
<path d="M13.2166 37.8125H16.6541V39.5313H13.2166V37.8125Z" fill="#DB0000"/>
<path d="M18.3729 37.8125H21.8104V39.5313H18.3729V37.8125Z" fill="#DB0000"/>
<path d="M28.6854 37.8125H32.1229V39.5313H28.6854V37.8125Z" fill="#DB0000"/>
<path d="M33.8416 37.8125H37.2791V39.5313H33.8416V37.8125Z" fill="#DB0000"/>
<path d="M38.9979 37.8125H42.4354V39.5313H38.9979V37.8125Z" fill="#DB0000"/>
<path d="M23.5291 37.8125H26.9666V39.5313H23.5291V37.8125Z" fill="#DB0000"/>
<path d="M16.1772 13.6057L21.3334 17.0432L22.2873 15.6132L18.201 12.8907L22.2847 10.1682L21.3308 8.73817L16.1746 12.1757C16.0569 12.2542 15.9604 12.3605 15.8936 12.4852C15.8269 12.6099 15.792 12.7492 15.792 12.8907C15.792 13.0321 15.8269 13.1714 15.8936 13.2961C15.9604 13.4209 16.0569 13.5272 16.1746 13.6057H16.1772Z" fill="#DB0000"/>
<path d="M29.1623 17.0432L34.3186 13.6057C34.4363 13.5272 34.5328 13.4209 34.5995 13.2961C34.6662 13.1714 34.7012 13.0321 34.7012 12.8907C34.7012 12.7492 34.6662 12.6099 34.5995 12.4852C34.5328 12.3605 34.4363 12.2542 34.3186 12.1757L29.1623 8.73817L28.2084 10.1682L32.2947 12.8907L28.211 15.6132L29.1623 17.0432Z" fill="#DB0000"/>
<path d="M23.5442 17.0038L25.262 8.40636L26.948 8.74324L25.2303 17.3406L23.5442 17.0038Z" fill="#DB0000"/>
</svg>
