<svg width="19" height="19" viewBox="0 0 19 19" fill="none" xmlns="http://www.w3.org/2000/svg">
<path d="M12.2832 13.9902H6.71681C6.4094 13.9902 6.16017 14.2395 6.16017 14.5469V15.6602C6.16017 15.9676 6.4094 16.2168 6.71681 16.2168H12.2832C12.5906 16.2168 12.8399 15.9676 12.8399 15.6602V14.5469C12.8399 14.2395 12.5906 13.9902 12.2832 13.9902Z" fill="white"/>
<path d="M7.01736 2.29412L6.23016 1.50692C6.01278 1.28953 5.66035 1.28953 5.44296 1.50692L1.50692 5.44296C1.28953 5.66034 1.28953 6.01277 1.50692 6.23016L2.29412 7.01736C2.51151 7.23474 2.86393 7.23474 3.08132 7.01736L7.01736 3.08132C7.23475 2.86393 7.23475 2.5115 7.01736 2.29412Z" fill="white"/>
<path d="M13.5571 1.50692C13.3397 1.28953 12.9873 1.28953 12.7699 1.50692L11.9827 2.29412C11.7653 2.5115 11.7653 2.86393 11.9827 3.08132L15.9187 7.01736C16.1361 7.23474 16.4885 7.23474 16.7059 7.01736L17.4931 6.23016C17.7105 6.01277 17.7105 5.66034 17.4931 5.44296L13.5571 1.50692Z" fill="white"/>
<path d="M7.27345 18.4434C7.27345 18.7508 7.52268 19 7.8301 19H11.1699C11.4774 19 11.7266 18.7508 11.7266 18.4434V17.3301H7.27345V18.4434Z" fill="white"/>
<path d="M3.31188 0.16304C3.09449 -0.0543466 2.74207 -0.0543466 2.52468 0.16304L0.16304 2.52468C-0.0543467 2.74206 -0.0543467 3.09449 0.16304 3.31188L1.1133 4.26214L4.26214 1.1133L3.31188 0.16304Z" fill="white"/>
<path d="M18.837 2.52468L16.4754 0.16304C16.258 -0.0543466 15.9055 -0.0543466 15.6882 0.16304L14.7379 1.1133L17.8867 4.2621L18.837 3.31188C19.0543 3.09449 19.0543 2.74206 18.837 2.52468Z" fill="white"/>
<path d="M9.50002 6.35117L7.41098 4.26214L4.26214 7.41098L7.27345 10.4223V12.877H11.7266V10.4223L14.7379 7.41098L11.5891 4.26214L9.50002 6.35117Z" fill="white"/>
</svg>
