<svg width="19" height="20" viewBox="0 0 19 20" fill="none" xmlns="http://www.w3.org/2000/svg">
<path d="M18.1817 1.50591e-06H0.818539C0.512107 -0.000593357 0.231356 0.175089 0.0913668 0.454871C-0.0505534 0.738421 -0.0256449 1.07987 0.155665 1.33883L6.51678 10.5411C6.5189 10.5443 6.52122 10.5473 6.52334 10.5504C6.75447 10.8709 6.87959 11.2591 6.88017 11.6579V19.1605C6.87882 19.3825 6.96378 19.5961 7.11613 19.7537C7.26867 19.9112 7.47604 20 7.6923 20C7.80217 19.9998 7.91107 19.9774 8.01264 19.934L11.5871 18.5345C11.9072 18.4339 12.1198 18.1236 12.1198 17.75V11.6579C12.1204 11.2591 12.2455 10.8709 12.4765 10.5504C12.4786 10.5473 12.4809 10.5443 12.483 10.5411L18.8443 1.33864C19.0256 1.07987 19.0506 0.73862 18.9086 0.45507C18.7688 0.175089 18.4879 -0.000593357 18.1817 1.50591e-06Z" fill="white"/>
</svg>
