<svg width="40" height="50" viewBox="0 0 40 50" fill="none" xmlns="http://www.w3.org/2000/svg">
<path d="M34.4338 32.6659L31.4993 31.8043L25.1149 27.6343V26.6788C26.9634 25.2846 28.2327 23.1534 28.4686 20.7105C29.3957 20.5613 30.1059 19.7558 30.1059 18.7874V16.16C30.1059 16.1498 30.1049 16.1398 30.1044 16.1297V12.8014C30.4737 12.5369 30.7081 12.1061 30.7081 11.6229V8.57704L35.1141 7.82656C35.8382 7.70322 36.3589 7.12812 36.41 6.3954C36.461 5.66269 36.0252 5.02089 35.3253 4.79833L20.4721 0.0739197C20.1621 -0.0247131 19.8348 -0.0246155 19.525 0.073822L4.67157 4.79833C3.97167 5.02089 3.53573 5.66269 3.5868 6.39531C3.61923 6.86083 3.84169 7.2622 4.18505 7.52509V11.5082H4.14872C3.31229 11.5082 2.63182 12.1887 2.63182 13.0251V15.0022L1.65262 20.7495C1.48339 21.7435 2.24901 22.6534 3.25975 22.6534H6.57509C7.58358 22.6534 8.35184 21.7457 8.18221 20.7494L7.20301 15.0022V13.0251C7.20301 12.1887 6.52255 11.5082 5.68612 11.5082H5.64989V7.95712L9.29188 8.57743V11.6229C9.29188 12.1041 9.52518 12.5342 9.89276 12.799L9.89413 18.7874C9.89413 19.7558 10.6044 20.5613 11.5314 20.7105C11.7673 23.152 13.0352 25.2822 14.8819 26.6766V27.6365L8.49891 31.8058L5.56678 32.6664C2.42919 33.5873 0.213757 36.4679 0.213757 39.8163V41.9991C0.213757 42.4036 0.541589 42.7315 0.946179 42.7315C1.35077 42.7315 1.6786 42.4037 1.6786 41.9991V39.8163C1.6786 37.1772 3.44706 34.815 5.97938 34.0719L8.71141 33.2699L19.6261 39.7556C19.8476 39.8872 20.1408 39.8942 20.3743 39.7556L31.2896 33.2695L34.0214 34.0715C36.5533 34.8148 38.3218 37.1769 38.3218 39.8158V46.8898C38.3218 47.7972 37.5836 48.5353 36.6763 48.5353H33.448V45.3783C33.448 44.9738 33.1202 44.6459 32.7156 44.6459C32.3111 44.6459 31.9832 44.9737 31.9832 45.3783V48.5353H8.01366V45.3783C8.01366 44.9738 7.68583 44.6459 7.28124 44.6459C6.87665 44.6459 6.54882 44.9737 6.54882 45.3783V48.5353H3.32391C2.41659 48.5353 1.67841 47.7972 1.67841 46.8898V45.4228C1.67841 45.0183 1.35057 44.6904 0.945984 44.6904C0.541394 44.6904 0.213562 45.0182 0.213562 45.4228V46.8897C0.213562 48.6048 1.60878 50 3.32382 50H36.6761C38.3911 50 39.7863 48.6048 39.7863 46.8897V39.8157C39.7863 36.5462 37.6465 33.6092 34.4338 32.6659ZM6.57499 21.1886H3.25975C3.15731 21.1886 3.07919 21.0971 3.09657 20.9954L3.98231 15.7966H5.85243L6.73817 20.9953C6.75546 21.0968 6.67792 21.1886 6.57499 21.1886ZM5.73817 13.0251V14.3318H4.09647V13.0251C4.09647 12.9963 4.11981 12.9729 4.14862 12.9729H5.68593C5.71483 12.9728 5.73817 12.9963 5.73817 13.0251ZM17.3806 36.4425L17.6721 36.8905L10.1946 32.4474L14.9408 29.3474C15.156 31.8727 15.9885 34.3029 17.3806 36.4425ZM17.3755 33.2808C19.0994 33.5258 20.8996 33.526 22.6245 33.2808C22.2912 34.101 21.8805 34.8924 21.3917 35.6437L20 37.7828L18.6083 35.6437C18.1195 34.8924 17.7088 34.101 17.3755 33.2808ZM22.6194 36.4425C24.0115 34.3029 24.8439 31.8727 25.0591 29.3474L29.8053 32.4473L22.3279 36.8905L22.6194 36.4425ZM26.9037 13.0741H28.6396V15.4274H27.778C27.2959 15.4274 26.9036 15.0352 26.9036 14.5531L26.9037 13.0741ZM5.11552 6.19423L19.9691 1.46962C19.9882 1.46357 20.0087 1.46347 20.028 1.46972L34.8815 6.19423C34.9122 6.204 34.9543 6.21728 34.9489 6.29355C34.9435 6.36972 34.9001 6.37704 34.8683 6.38251L29.9573 7.21894L28.1136 6.99091C27.7124 6.9412 27.3466 7.22656 27.2969 7.62792C27.2473 8.02939 27.5325 8.39501 27.9339 8.44462L29.2434 8.60663V11.6094L10.7566 11.6087V8.60653L18.3354 7.66874C19.4393 7.53232 20.5585 7.53232 21.6616 7.66874L24.5301 8.02353C24.9314 8.07324 25.2972 7.78798 25.3469 7.38661C25.3966 6.98515 25.1113 6.61952 24.7099 6.56982L21.8415 6.21503C20.6191 6.06376 19.3789 6.06376 18.1557 6.21503L10.041 7.21913L5.1286 6.38251C5.09677 6.37704 5.05331 6.36972 5.04794 6.29355C5.04266 6.21728 5.08475 6.2039 5.11552 6.19423ZM11.3585 15.4274L11.3575 13.0741H13.0963V14.5532C13.0963 15.0352 12.7041 15.4275 12.2219 15.4275L11.3585 15.4274ZM12.9705 20.3341C12.9328 19.7377 12.4371 19.2705 11.8421 19.2705C11.5756 19.2705 11.3588 19.0537 11.3588 18.7873V16.8923H12.2219C13.5116 16.8923 14.561 15.843 14.561 14.5532V13.0741H25.4389V14.5532C25.4389 15.843 26.4883 16.8923 27.778 16.8923H28.6411V18.7873C28.6411 19.0537 28.4243 19.2705 28.1578 19.2705C27.5628 19.2705 27.0671 19.7377 27.0294 20.3342C26.7961 24.0323 23.7084 26.9293 19.9999 26.9293C16.2914 26.9293 13.2038 24.0323 12.9705 20.3341ZM20 28.394C21.3026 28.394 22.5407 28.0962 23.6502 27.5666V28.0308C23.6502 29.283 23.4812 30.5182 23.1559 31.7097C21.1655 32.0891 18.9152 32.1045 16.844 31.7097C16.5187 30.5183 16.3498 29.2831 16.3498 28.0308C16.3498 28.0152 16.3476 28.0001 16.3467 27.9848C16.3465 27.9817 16.3468 27.9787 16.3466 27.9757V27.5651C17.4568 28.0956 18.6961 28.394 20 28.394Z" fill="#DE1E1E"/>
</svg>
