<svg width="15" height="20" viewBox="0 0 15 20" fill="none" xmlns="http://www.w3.org/2000/svg">
<path d="M7.44759 10.8127C9.30625 10.8127 10.813 9.30592 10.813 7.44726C10.813 5.5886 9.30625 4.08186 7.44759 4.08186C5.58894 4.08186 4.0822 5.5886 4.0822 7.44726C4.0822 9.30592 5.58894 10.8127 7.44759 10.8127Z" fill="#DB0000"/>
<path d="M7.4476 20C7.4476 20 14.8951 11.5607 14.8951 7.44759C14.8951 3.33442 11.5608 0 7.4476 0C3.33442 0 0 3.33442 0 7.44756C0 11.5607 7.4476 20 7.4476 20ZM7.4476 2.30521C10.2872 2.30521 12.5896 4.60718 12.5896 7.44722C12.5896 10.2873 10.2872 12.5892 7.4476 12.5892C4.60794 12.5892 2.30563 10.2872 2.30563 7.44722C2.30563 4.60722 4.60794 2.30521 7.4476 2.30521Z" fill="#DB0000"/>
</svg>
