<svg width="20" height="20" viewBox="0 0 20 20" fill="none" xmlns="http://www.w3.org/2000/svg">
<path d="M15.2052 13.2303C14.5518 12.5852 13.7361 12.5852 13.0869 13.2303C12.5916 13.7214 12.0963 14.2125 11.6094 14.712C11.4762 14.8493 11.3639 14.8784 11.2015 14.7869C10.8811 14.6121 10.5398 14.4706 10.2318 14.2791C8.796 13.376 7.59322 12.2148 6.52779 10.908C5.99923 10.2588 5.52894 9.56375 5.20016 8.78133C5.13357 8.62317 5.14605 8.51913 5.27507 8.39011C5.77033 7.9115 6.25311 7.4204 6.74004 6.9293C7.41842 6.24676 7.41842 5.44769 6.73588 4.76098C6.34883 4.36977 5.96178 3.98688 5.57472 3.59567C5.17519 3.19613 4.77981 2.79243 4.37611 2.39706C3.7227 1.76029 2.90698 1.76029 2.25773 2.40122C1.75831 2.89232 1.2797 3.3959 0.771951 3.87867C0.301662 4.32399 0.0644364 4.86919 0.0144942 5.50595C-0.064581 6.54225 0.189292 7.52029 0.547211 8.47335C1.2797 10.4461 2.39507 12.1982 3.74767 13.8047C5.57473 15.9772 7.75553 17.696 10.3067 18.9362C11.4554 19.4939 12.6457 19.9226 13.94 19.9933C14.8307 20.0433 15.6048 19.8185 16.2249 19.1235C16.6494 18.6491 17.128 18.2162 17.5775 17.7626C18.2434 17.0884 18.2476 16.2726 17.5858 15.6067C16.7951 14.8118 16.0002 14.0211 15.2052 13.2303Z" fill="#DB0000"/>
<path d="M14.4103 9.91353L15.9461 9.65133C15.7047 8.24046 15.0388 6.96277 14.0274 5.94728C12.9578 4.87769 11.6052 4.20347 10.1153 3.99538L9.89888 5.53942C11.0517 5.70174 12.1005 6.22197 12.9287 7.05017C13.7111 7.8326 14.223 8.82312 14.4103 9.91353Z" fill="#DB0000"/>
<path d="M16.8117 3.23792C15.0388 1.46497 12.7955 0.345433 10.3192 0L10.1028 1.54405C12.242 1.8437 14.1814 2.81341 15.713 4.34081C17.1655 5.79329 18.1185 7.62867 18.464 9.64717L19.9997 9.38497C19.596 7.04601 18.4931 4.92347 16.8117 3.23792Z" fill="#DB0000"/>
</svg>
