<svg width="20" height="20" viewBox="0 0 20 20" fill="none" xmlns="http://www.w3.org/2000/svg">
<path d="M14.6771 12.9095C15.6612 11.5655 16.2499 9.91467 16.2499 8.12503C16.2499 3.64504 12.6049 0 8.12494 0C3.64498 0 0 3.64504 0 8.12503C0 12.605 3.64502 16.2501 8.12498 16.2501C9.91462 16.2501 11.5656 15.6613 12.9096 14.6771L18.2324 20L20 18.2324C20 18.2324 14.6771 12.9095 14.6771 12.9095ZM8.12498 13.75C5.02318 13.75 2.50001 11.2269 2.50001 8.12503C2.50001 5.02321 5.02318 2.50002 8.12498 2.50002C11.2268 2.50002 13.75 5.02321 13.75 8.12503C13.75 11.2269 11.2267 13.75 8.12498 13.75Z" fill="white"/>
</svg>
