<svg width="23" height="23" viewBox="0 0 23 23" fill="none" xmlns="http://www.w3.org/2000/svg">
<path d="M22.1375 9.78262L20.8955 9.65803C20.8122 9.22776 20.699 8.80521 20.56 8.39688L21.5722 7.66953C21.9726 7.38105 22.0896 6.84058 21.8424 6.41225L21.0777 5.08881C20.8313 4.66135 20.3052 4.49166 19.8537 4.69398L18.721 5.20567C18.4345 4.87701 18.124 4.56641 17.7952 4.27986L18.3071 3.14629C18.5092 2.69584 18.3397 2.16959 17.9122 1.92234L16.5888 1.15867C16.1594 0.911423 15.6198 1.02829 15.3313 1.4289L14.604 2.44087C14.1958 2.30102 13.7731 2.18889 13.3428 2.10554L13.2183 0.863518C13.1684 0.370956 12.7583 0 12.2638 0H10.7353C10.2408 0 9.83052 0.370956 9.78174 0.862465L9.65715 2.10448C9.22688 2.18784 8.80416 2.30102 8.396 2.43999L7.66866 1.4289C7.38105 1.02829 6.84058 0.911423 6.41119 1.15867L5.08881 1.92234C4.66029 2.16959 4.49078 2.69584 4.69398 3.14716L5.20567 4.27986C4.87595 4.56641 4.56641 4.87595 4.27986 5.20567L3.14629 4.69293C2.69584 4.49078 2.16959 4.66029 1.92234 5.08881L1.15867 6.41119C0.911423 6.84058 1.02829 7.38105 1.4289 7.66866L2.44087 8.396C2.30102 8.80416 2.18889 9.22688 2.10554 9.65715L0.863518 9.78174C0.370956 9.83157 0 10.2417 0 10.7362V12.2647C0 12.7592 0.370956 13.1695 0.862465 13.2183L2.10448 13.3428C2.18784 13.7731 2.30102 14.1958 2.43999 14.604L1.42785 15.3313C1.02741 15.6198 0.91037 16.1603 1.15762 16.5888L1.92146 17.9122C2.16871 18.3406 2.69584 18.5111 3.14523 18.3071L4.27793 17.7952C4.56448 18.124 4.87508 18.4345 5.20374 18.721L4.69205 19.8548C4.48973 20.3052 4.65942 20.8313 5.08688 21.0785L6.41032 21.8424C6.83971 22.0905 7.38017 21.9736 7.6676 21.5722L8.39495 20.56C8.80328 20.7 9.22583 20.8122 9.6561 20.8955L9.78069 22.1375C9.83157 22.629 10.2417 23 10.7362 23H12.2647C12.7592 23 13.1695 22.629 13.2183 22.1375L13.3428 20.8955C13.7731 20.8122 14.1958 20.699 14.604 20.56L15.3313 21.5722C15.6198 21.9726 16.1585 22.0886 16.5888 21.8424L17.9122 21.0785C18.3397 20.8313 18.5103 20.3052 18.3071 19.8548L17.7952 18.7221C18.124 18.4355 18.4345 18.1249 18.721 17.7963L19.8548 18.3079C20.3052 18.5103 20.8322 18.3415 21.0785 17.9131L21.8424 16.5897C22.0896 16.1613 21.9726 15.6209 21.5722 15.3324L20.56 14.605C20.7 14.1967 20.8122 13.7742 20.8955 13.3439L22.1375 13.2193C22.629 13.1684 23 12.7583 23 12.2638V10.7353C23 10.2417 22.629 9.83157 22.1375 9.78262ZM11.5 4.79173C14.8723 4.79173 17.6639 7.29577 18.1316 10.5417H13.6927C13.3218 9.69733 12.4804 9.10423 11.5 9.10423C11.4109 9.10423 11.3256 9.12142 11.2384 9.13107L9.01315 5.27464C9.78262 4.96615 10.6212 4.79173 11.5 4.79173ZM4.79173 11.5C4.79173 9.36586 5.79703 7.46545 7.3542 6.23589L9.57661 10.0846C9.28339 10.4833 9.10423 10.969 9.10423 11.5C9.10423 12.031 9.28339 12.5167 9.57661 12.9145L7.3542 16.7632C5.79703 15.5337 4.79173 13.6341 4.79173 11.5ZM11.5 18.2083C10.6212 18.2083 9.78262 18.0339 9.01315 17.7243L11.2394 13.8689C11.3256 13.8786 11.4109 13.8958 11.5 13.8958C12.4804 13.8958 13.3218 13.3027 13.6927 12.4583H18.1316C17.6639 15.7042 14.8723 18.2083 11.5 18.2083Z" fill="white"/>
</svg>
