<svg width="853" height="71" viewBox="0 0 853 71" fill="none" xmlns="http://www.w3.org/2000/svg">
<path d="M-28 93L7 35.5L-28 -22M7 93L42 35.5L7 -22M42 93L77 35.5L42 -22M77 93L112 35.5L77 -22M112 93L147 35.5L112 -22M147 93L182 35.5L147 -22M182 93L217 35.5L182 -22M217 93L252 35.5L217 -22M252 93L287 35.5L252 -22M287 93L322 35.5L287 -22M322 93L357 35.5L322 -22M357 93L392 35.5L357 -22M392 93L427 35.5L392 -22M427 93L462 35.5L427 -22M462 93L497 35.5L462 -22M497 93L532 35.5L497 -22M532 93L567 35.5L532 -22M567 93L602 35.5L567 -22M602 93L637 35.5L602 -22M637 93L672 35.5L637 -22M672 93L707 35.5L672 -22M707 93L742 35.5L707 -22M742 93L777 35.5L742 -22M777 93L812 35.5L777 -22M812 93L847 35.5L812 -22M847 93L882 35.5L847 -22" stroke="white" stroke-opacity="0.25" stroke-width="18"/>
</svg>
