<svg width="887" height="18" viewBox="0 0 887 18" fill="none" xmlns="http://www.w3.org/2000/svg">
<mask id="path-1-inside-1" fill="white">
<path fill-rule="evenodd" clip-rule="evenodd" d="M18.4819 9C18.4819 13.9706 14.3446 18 9.24093 18C4.13731 18 0 13.9706 0 9C0 4.02944 4.13731 0 9.24093 0C14.3446 0 18.4819 4.02944 18.4819 9ZM36.9637 9C36.9637 13.9706 32.8264 18 27.7228 18C22.6192 18 18.4819 13.9706 18.4819 9C18.4819 4.02944 22.6192 0 27.7228 0C32.8264 0 36.9637 4.02944 36.9637 9ZM55.4456 9C55.4456 13.9706 51.3083 18 46.2047 18C41.101 18 36.9637 13.9706 36.9637 9C36.9637 4.02944 41.101 0 46.2047 0C51.3083 0 55.4456 4.02944 55.4456 9ZM73.9275 9C73.9275 13.9706 69.7902 18 64.6865 18C59.5829 18 55.4456 13.9706 55.4456 9C55.4456 4.02944 59.5829 0 64.6865 0C69.7902 0 73.9275 4.02944 73.9275 9ZM92.4093 9C92.4093 13.9706 88.272 18 83.1684 18C78.0648 18 73.9275 13.9706 73.9275 9C73.9275 4.02944 78.0648 0 83.1684 0C88.272 0 92.4093 4.02944 92.4093 9ZM110.891 9C110.891 13.9706 106.754 18 101.65 18C96.5466 18 92.4093 13.9706 92.4093 9C92.4093 4.02944 96.5466 0 101.65 0C106.754 0 110.891 4.02944 110.891 9ZM129.373 9C129.373 13.9706 125.236 18 120.132 18C115.028 18 110.891 13.9706 110.891 9C110.891 4.02944 115.028 0 120.132 0C125.236 0 129.373 4.02944 129.373 9ZM147.855 9C147.855 13.9706 143.718 18 138.614 18C133.51 18 129.373 13.9706 129.373 9C129.373 4.02944 133.51 0 138.614 0C143.718 0 147.855 4.02944 147.855 9ZM166.337 9C166.337 13.9706 162.199 18 157.096 18C151.992 18 147.855 13.9706 147.855 9C147.855 4.02944 151.992 0 157.096 0C162.199 0 166.337 4.02944 166.337 9ZM184.819 9C184.819 13.9706 180.681 18 175.578 18C170.474 18 166.337 13.9706 166.337 9C166.337 4.02944 170.474 0 175.578 0C180.681 0 184.819 4.02944 184.819 9ZM203.301 9C203.301 13.9706 199.163 18 194.06 18C188.956 18 184.819 13.9706 184.819 9C184.819 4.02944 188.956 0 194.06 0C199.163 0 203.301 4.02944 203.301 9ZM221.782 9C221.782 13.9706 217.645 18 212.541 18C207.438 18 203.301 13.9706 203.301 9C203.301 4.02944 207.438 0 212.541 0C217.645 0 221.782 4.02944 221.782 9ZM240.264 9C240.264 13.9706 236.127 18 231.023 18C225.92 18 221.782 13.9706 221.782 9C221.782 4.02944 225.92 0 231.023 0C236.127 0 240.264 4.02944 240.264 9ZM258.746 9C258.746 13.9706 254.609 18 249.505 18C244.402 18 240.264 13.9706 240.264 9C240.264 4.02944 244.402 0 249.505 0C254.609 0 258.746 4.02944 258.746 9ZM277.228 9C277.228 13.9706 273.091 18 267.987 18C262.883 18 258.746 13.9706 258.746 9C258.746 4.02944 262.883 0 267.987 0C273.091 0 277.228 4.02944 277.228 9ZM295.71 9C295.71 13.9706 291.573 18 286.469 18C281.365 18 277.228 13.9706 277.228 9C277.228 4.02944 281.365 0 286.469 0C291.573 0 295.71 4.02944 295.71 9ZM314.127 7.92907C313.583 3.46332 309.682 0 304.951 0C299.847 0 295.71 4.02944 295.71 9C295.71 13.9706 299.847 18 304.951 18C309.682 18 313.583 14.5367 314.127 10.0709C314.671 14.5367 318.572 18 323.303 18C323.325 18 323.346 17.9999 323.368 17.9998C323.389 17.9999 323.411 18 323.433 18C328.164 18 332.065 14.5367 332.609 10.0709C333.152 14.5367 337.053 18 341.785 18C341.807 18 341.828 17.9999 341.85 17.9998C341.871 17.9999 341.893 18 341.914 18C346.646 18 350.547 14.5367 351.091 10.0709C351.634 14.5367 355.535 18 360.267 18C360.288 18 360.31 17.9999 360.332 17.9998C360.353 17.9999 360.375 18 360.396 18C365.128 18 369.029 14.5367 369.573 10.0711C370.116 14.5367 374.017 18 378.749 18C378.77 18 378.792 17.9999 378.813 17.9998C378.835 17.9999 378.857 18 378.878 18C383.61 18 387.511 14.5367 388.054 10.0709C388.598 14.5367 392.499 18 397.231 18C397.252 18 397.274 17.9999 397.295 17.9998C397.317 17.9999 397.338 18 397.36 18C402.092 18 405.993 14.5367 406.536 10.0711C407.08 14.5367 410.981 18 415.712 18C415.734 18 415.756 17.9999 415.777 17.9998C415.799 17.9999 415.82 18 415.842 18C420.573 18 424.474 14.5367 425.018 10.0711C425.562 14.5367 429.463 18 434.194 18C434.216 18 434.237 17.9999 434.259 17.9998C434.281 17.9999 434.302 18 434.324 18C439.055 18 442.956 14.5367 443.5 10.0711C444.044 14.5367 447.945 18 452.676 18C452.698 18 452.719 17.9999 452.741 17.9998C452.763 17.9999 452.784 18 452.806 18C457.537 18 461.438 14.5367 461.982 10.0711C462.526 14.5367 466.427 18 471.158 18C471.18 18 471.201 17.9999 471.223 17.9998C471.244 17.9999 471.266 18 471.288 18C476.019 18 479.92 14.5367 480.464 10.0711C481.007 14.5367 484.908 18 489.64 18C489.662 18 489.683 17.9999 489.705 17.9998C489.726 17.9999 489.748 18 489.769 18C494.501 18 498.402 14.5367 498.946 10.0711C499.489 14.5367 503.39 18 508.122 18C508.143 18 508.165 17.9999 508.187 17.9998C508.208 17.9999 508.23 18 508.251 18C512.983 18 516.884 14.5366 517.427 10.0708C517.971 14.5366 521.872 18 526.604 18C526.625 18 526.647 17.9999 526.668 17.9998C526.69 17.9999 526.711 18 526.733 18C531.465 18 535.366 14.5367 535.909 10.0711C536.453 14.5367 540.354 18 545.086 18C545.107 18 545.128 17.9999 545.15 17.9998C545.172 17.9999 545.193 18 545.215 18C549.946 18 553.847 14.5369 554.391 10.0713C554.935 14.5369 558.836 18 563.567 18C563.589 18 563.61 17.9999 563.632 17.9998C563.654 17.9999 563.675 18 563.697 18C568.428 18 572.329 14.5367 572.873 10.0711C573.417 14.5367 577.318 18 582.049 18C587.153 18 591.29 13.9706 591.29 9C591.29 13.9706 595.427 18 600.531 18C605.635 18 609.772 13.9706 609.772 9C609.772 13.9706 613.909 18 619.013 18C624.117 18 628.254 13.9706 628.254 9C628.254 13.9706 632.391 18 637.495 18C642.598 18 646.736 13.9706 646.736 9C646.736 13.9706 650.873 18 655.977 18C661.08 18 665.218 13.9706 665.218 9C665.218 13.9706 669.355 18 674.459 18C679.562 18 683.699 13.9706 683.699 9C683.699 13.9706 687.837 18 692.94 18C698.044 18 702.181 13.9706 702.181 9C702.181 13.9706 706.319 18 711.422 18C716.526 18 720.663 13.9706 720.663 9C720.663 13.9706 724.8 18 729.904 18C735.008 18 739.145 13.9706 739.145 9C739.145 13.9706 743.282 18 748.386 18C753.49 18 757.627 13.9706 757.627 9C757.627 13.9706 761.764 18 766.868 18C771.971 18 776.109 13.9706 776.109 9C776.109 13.9706 780.246 18 785.35 18C790.453 18 794.591 13.9706 794.591 9C794.591 13.9706 798.728 18 803.832 18C808.935 18 813.073 13.9706 813.073 9C813.073 13.9706 817.21 18 822.313 18C827.417 18 831.554 13.9706 831.554 9C831.554 13.9706 835.692 18 840.795 18C845.899 18 850.036 13.9706 850.036 9C850.036 13.9706 854.174 18 859.277 18C864.381 18 868.518 13.9706 868.518 9C868.518 13.9706 872.655 18 877.759 18C882.863 18 887 13.9706 887 9C887 4.02944 882.863 0 877.759 0C872.655 0 868.518 4.02944 868.518 9C868.518 4.02944 864.381 0 859.277 0C854.174 0 850.036 4.02944 850.036 9C850.036 4.02944 845.899 0 840.795 0C835.692 0 831.554 4.02944 831.554 9C831.554 4.02944 827.417 0 822.313 0C817.21 0 813.073 4.02944 813.073 9C813.073 4.02944 808.935 0 803.832 0C798.728 0 794.591 4.02944 794.591 9C794.591 4.02944 790.453 0 785.35 0C780.246 0 776.109 4.02944 776.109 9C776.109 4.02944 771.971 0 766.868 0C761.764 0 757.627 4.02944 757.627 9C757.627 4.02944 753.49 0 748.386 0C743.282 0 739.145 4.02944 739.145 9C739.145 4.02944 735.008 0 729.904 0C724.8 0 720.663 4.02944 720.663 9C720.663 4.02944 716.526 0 711.422 0C706.319 0 702.181 4.02944 702.181 9C702.181 4.02944 698.044 0 692.94 0C687.837 0 683.699 4.02944 683.699 9C683.699 4.02944 679.562 0 674.459 0C669.355 0 665.218 4.02944 665.218 9C665.218 4.02944 661.08 0 655.977 0C650.873 0 646.736 4.02944 646.736 9C646.736 4.02944 642.598 0 637.495 0C632.391 0 628.254 4.02944 628.254 9C628.254 4.02944 624.117 0 619.013 0C613.909 0 609.772 4.02944 609.772 9C609.772 4.02944 605.635 0 600.531 0C595.427 0 591.29 4.02944 591.29 9C591.29 4.02944 587.153 0 582.049 0C577.318 0 573.417 3.46326 572.873 7.92895C572.329 3.46326 568.428 0 563.697 0C563.675 0 563.654 7.26193e-05 563.632 0.000217622C563.61 7.26193e-05 563.589 0 563.567 0C558.836 0 554.935 3.46313 554.391 7.9287C553.847 3.46313 549.946 0 545.215 0C545.193 0 545.172 7.25507e-05 545.15 0.000217416C545.128 7.25507e-05 545.107 0 545.086 0C540.354 0 536.453 3.46326 535.909 7.92895C535.366 3.46326 531.465 0 526.733 0C526.711 0 526.69 7.26202e-05 526.668 0.000217624C526.647 7.26202e-05 526.625 0 526.604 0C521.872 0 517.971 3.46339 517.427 7.92919C516.884 3.46339 512.983 0 508.251 0C508.23 0 508.208 7.21997e-05 508.187 0.000216365C508.165 7.22003e-05 508.143 0 508.122 0C503.39 0 499.489 3.46326 498.946 7.92895C498.402 3.46326 494.501 0 489.769 0C489.748 0 489.726 7.21998e-05 489.705 0.000216365C489.683 7.21992e-05 489.662 0 489.64 0C484.908 0 481.007 3.46326 480.464 7.92895C479.92 3.46326 476.019 0 471.288 0C471.266 0 471.244 7.21653e-05 471.223 0.000216262C471.201 7.21647e-05 471.18 0 471.158 0C466.427 0 462.526 3.46326 461.982 7.92895C461.438 3.46326 457.537 0 452.806 0C452.784 0 452.763 7.21993e-05 452.741 0.000216364C452.719 7.21999e-05 452.698 0 452.676 0C447.945 0 444.044 3.46326 443.5 7.92895C442.956 3.46326 439.055 0 434.324 0C434.302 0 434.281 7.21993e-05 434.259 0.000216364C434.237 7.21999e-05 434.216 0 434.194 0C429.463 0 425.562 3.46326 425.018 7.92895C424.474 3.46326 420.573 0 415.842 0C415.82 0 415.799 7.21653e-05 415.777 0.000216262C415.756 7.21647e-05 415.734 0 415.712 0C410.981 0 407.08 3.46326 406.536 7.92895C405.993 3.46326 402.092 0 397.36 0C397.338 0 397.317 7.21661e-05 397.295 0.000216264C397.274 7.21667e-05 397.252 0 397.231 0C392.499 0 388.598 3.46332 388.054 7.92907C387.511 3.46332 383.61 0 378.878 0C378.857 0 378.835 7.21993e-05 378.813 0.000216364C378.792 7.21999e-05 378.77 0 378.749 0C374.017 0 370.116 3.46326 369.573 7.92895C369.029 3.46326 365.128 0 360.396 0C360.375 0 360.353 7.21993e-05 360.332 0.000216364C360.31 7.21999e-05 360.288 0 360.267 0C355.535 0 351.634 3.46332 351.091 7.92907C350.547 3.46332 346.646 0 341.914 0C341.893 0 341.871 7.21653e-05 341.85 0.000216262C341.828 7.21647e-05 341.807 0 341.785 0C337.053 0 333.152 3.46332 332.609 7.92907C332.065 3.46332 328.164 0 323.433 0C323.411 0 323.389 7.21994e-05 323.368 0.000216364C323.346 7.21988e-05 323.325 0 323.303 0C318.572 0 314.671 3.46332 314.127 7.92907Z"/>
</mask>
<path fill-rule="evenodd" clip-rule="evenodd" d="M18.4819 9C18.4819 13.9706 14.3446 18 9.24093 18C4.13731 18 0 13.9706 0 9C0 4.02944 4.13731 0 9.24093 0C14.3446 0 18.4819 4.02944 18.4819 9ZM36.9637 9C36.9637 13.9706 32.8264 18 27.7228 18C22.6192 18 18.4819 13.9706 18.4819 9C18.4819 4.02944 22.6192 0 27.7228 0C32.8264 0 36.9637 4.02944 36.9637 9ZM55.4456 9C55.4456 13.9706 51.3083 18 46.2047 18C41.101 18 36.9637 13.9706 36.9637 9C36.9637 4.02944 41.101 0 46.2047 0C51.3083 0 55.4456 4.02944 55.4456 9ZM73.9275 9C73.9275 13.9706 69.7902 18 64.6865 18C59.5829 18 55.4456 13.9706 55.4456 9C55.4456 4.02944 59.5829 0 64.6865 0C69.7902 0 73.9275 4.02944 73.9275 9ZM92.4093 9C92.4093 13.9706 88.272 18 83.1684 18C78.0648 18 73.9275 13.9706 73.9275 9C73.9275 4.02944 78.0648 0 83.1684 0C88.272 0 92.4093 4.02944 92.4093 9ZM110.891 9C110.891 13.9706 106.754 18 101.65 18C96.5466 18 92.4093 13.9706 92.4093 9C92.4093 4.02944 96.5466 0 101.65 0C106.754 0 110.891 4.02944 110.891 9ZM129.373 9C129.373 13.9706 125.236 18 120.132 18C115.028 18 110.891 13.9706 110.891 9C110.891 4.02944 115.028 0 120.132 0C125.236 0 129.373 4.02944 129.373 9ZM147.855 9C147.855 13.9706 143.718 18 138.614 18C133.51 18 129.373 13.9706 129.373 9C129.373 4.02944 133.51 0 138.614 0C143.718 0 147.855 4.02944 147.855 9ZM166.337 9C166.337 13.9706 162.199 18 157.096 18C151.992 18 147.855 13.9706 147.855 9C147.855 4.02944 151.992 0 157.096 0C162.199 0 166.337 4.02944 166.337 9ZM184.819 9C184.819 13.9706 180.681 18 175.578 18C170.474 18 166.337 13.9706 166.337 9C166.337 4.02944 170.474 0 175.578 0C180.681 0 184.819 4.02944 184.819 9ZM203.301 9C203.301 13.9706 199.163 18 194.06 18C188.956 18 184.819 13.9706 184.819 9C184.819 4.02944 188.956 0 194.06 0C199.163 0 203.301 4.02944 203.301 9ZM221.782 9C221.782 13.9706 217.645 18 212.541 18C207.438 18 203.301 13.9706 203.301 9C203.301 4.02944 207.438 0 212.541 0C217.645 0 221.782 4.02944 221.782 9ZM240.264 9C240.264 13.9706 236.127 18 231.023 18C225.92 18 221.782 13.9706 221.782 9C221.782 4.02944 225.92 0 231.023 0C236.127 0 240.264 4.02944 240.264 9ZM258.746 9C258.746 13.9706 254.609 18 249.505 18C244.402 18 240.264 13.9706 240.264 9C240.264 4.02944 244.402 0 249.505 0C254.609 0 258.746 4.02944 258.746 9ZM277.228 9C277.228 13.9706 273.091 18 267.987 18C262.883 18 258.746 13.9706 258.746 9C258.746 4.02944 262.883 0 267.987 0C273.091 0 277.228 4.02944 277.228 9ZM295.71 9C295.71 13.9706 291.573 18 286.469 18C281.365 18 277.228 13.9706 277.228 9C277.228 4.02944 281.365 0 286.469 0C291.573 0 295.71 4.02944 295.71 9ZM314.127 7.92907C313.583 3.46332 309.682 0 304.951 0C299.847 0 295.71 4.02944 295.71 9C295.71 13.9706 299.847 18 304.951 18C309.682 18 313.583 14.5367 314.127 10.0709C314.671 14.5367 318.572 18 323.303 18C323.325 18 323.346 17.9999 323.368 17.9998C323.389 17.9999 323.411 18 323.433 18C328.164 18 332.065 14.5367 332.609 10.0709C333.152 14.5367 337.053 18 341.785 18C341.807 18 341.828 17.9999 341.85 17.9998C341.871 17.9999 341.893 18 341.914 18C346.646 18 350.547 14.5367 351.091 10.0709C351.634 14.5367 355.535 18 360.267 18C360.288 18 360.31 17.9999 360.332 17.9998C360.353 17.9999 360.375 18 360.396 18C365.128 18 369.029 14.5367 369.573 10.0711C370.116 14.5367 374.017 18 378.749 18C378.77 18 378.792 17.9999 378.813 17.9998C378.835 17.9999 378.857 18 378.878 18C383.61 18 387.511 14.5367 388.054 10.0709C388.598 14.5367 392.499 18 397.231 18C397.252 18 397.274 17.9999 397.295 17.9998C397.317 17.9999 397.338 18 397.36 18C402.092 18 405.993 14.5367 406.536 10.0711C407.08 14.5367 410.981 18 415.712 18C415.734 18 415.756 17.9999 415.777 17.9998C415.799 17.9999 415.82 18 415.842 18C420.573 18 424.474 14.5367 425.018 10.0711C425.562 14.5367 429.463 18 434.194 18C434.216 18 434.237 17.9999 434.259 17.9998C434.281 17.9999 434.302 18 434.324 18C439.055 18 442.956 14.5367 443.5 10.0711C444.044 14.5367 447.945 18 452.676 18C452.698 18 452.719 17.9999 452.741 17.9998C452.763 17.9999 452.784 18 452.806 18C457.537 18 461.438 14.5367 461.982 10.0711C462.526 14.5367 466.427 18 471.158 18C471.18 18 471.201 17.9999 471.223 17.9998C471.244 17.9999 471.266 18 471.288 18C476.019 18 479.92 14.5367 480.464 10.0711C481.007 14.5367 484.908 18 489.64 18C489.662 18 489.683 17.9999 489.705 17.9998C489.726 17.9999 489.748 18 489.769 18C494.501 18 498.402 14.5367 498.946 10.0711C499.489 14.5367 503.39 18 508.122 18C508.143 18 508.165 17.9999 508.187 17.9998C508.208 17.9999 508.23 18 508.251 18C512.983 18 516.884 14.5366 517.427 10.0708C517.971 14.5366 521.872 18 526.604 18C526.625 18 526.647 17.9999 526.668 17.9998C526.69 17.9999 526.711 18 526.733 18C531.465 18 535.366 14.5367 535.909 10.0711C536.453 14.5367 540.354 18 545.086 18C545.107 18 545.128 17.9999 545.15 17.9998C545.172 17.9999 545.193 18 545.215 18C549.946 18 553.847 14.5369 554.391 10.0713C554.935 14.5369 558.836 18 563.567 18C563.589 18 563.61 17.9999 563.632 17.9998C563.654 17.9999 563.675 18 563.697 18C568.428 18 572.329 14.5367 572.873 10.0711C573.417 14.5367 577.318 18 582.049 18C587.153 18 591.29 13.9706 591.29 9C591.29 13.9706 595.427 18 600.531 18C605.635 18 609.772 13.9706 609.772 9C609.772 13.9706 613.909 18 619.013 18C624.117 18 628.254 13.9706 628.254 9C628.254 13.9706 632.391 18 637.495 18C642.598 18 646.736 13.9706 646.736 9C646.736 13.9706 650.873 18 655.977 18C661.08 18 665.218 13.9706 665.218 9C665.218 13.9706 669.355 18 674.459 18C679.562 18 683.699 13.9706 683.699 9C683.699 13.9706 687.837 18 692.94 18C698.044 18 702.181 13.9706 702.181 9C702.181 13.9706 706.319 18 711.422 18C716.526 18 720.663 13.9706 720.663 9C720.663 13.9706 724.8 18 729.904 18C735.008 18 739.145 13.9706 739.145 9C739.145 13.9706 743.282 18 748.386 18C753.49 18 757.627 13.9706 757.627 9C757.627 13.9706 761.764 18 766.868 18C771.971 18 776.109 13.9706 776.109 9C776.109 13.9706 780.246 18 785.35 18C790.453 18 794.591 13.9706 794.591 9C794.591 13.9706 798.728 18 803.832 18C808.935 18 813.073 13.9706 813.073 9C813.073 13.9706 817.21 18 822.313 18C827.417 18 831.554 13.9706 831.554 9C831.554 13.9706 835.692 18 840.795 18C845.899 18 850.036 13.9706 850.036 9C850.036 13.9706 854.174 18 859.277 18C864.381 18 868.518 13.9706 868.518 9C868.518 13.9706 872.655 18 877.759 18C882.863 18 887 13.9706 887 9C887 4.02944 882.863 0 877.759 0C872.655 0 868.518 4.02944 868.518 9C868.518 4.02944 864.381 0 859.277 0C854.174 0 850.036 4.02944 850.036 9C850.036 4.02944 845.899 0 840.795 0C835.692 0 831.554 4.02944 831.554 9C831.554 4.02944 827.417 0 822.313 0C817.21 0 813.073 4.02944 813.073 9C813.073 4.02944 808.935 0 803.832 0C798.728 0 794.591 4.02944 794.591 9C794.591 4.02944 790.453 0 785.35 0C780.246 0 776.109 4.02944 776.109 9C776.109 4.02944 771.971 0 766.868 0C761.764 0 757.627 4.02944 757.627 9C757.627 4.02944 753.49 0 748.386 0C743.282 0 739.145 4.02944 739.145 9C739.145 4.02944 735.008 0 729.904 0C724.8 0 720.663 4.02944 720.663 9C720.663 4.02944 716.526 0 711.422 0C706.319 0 702.181 4.02944 702.181 9C702.181 4.02944 698.044 0 692.94 0C687.837 0 683.699 4.02944 683.699 9C683.699 4.02944 679.562 0 674.459 0C669.355 0 665.218 4.02944 665.218 9C665.218 4.02944 661.08 0 655.977 0C650.873 0 646.736 4.02944 646.736 9C646.736 4.02944 642.598 0 637.495 0C632.391 0 628.254 4.02944 628.254 9C628.254 4.02944 624.117 0 619.013 0C613.909 0 609.772 4.02944 609.772 9C609.772 4.02944 605.635 0 600.531 0C595.427 0 591.29 4.02944 591.29 9C591.29 4.02944 587.153 0 582.049 0C577.318 0 573.417 3.46326 572.873 7.92895C572.329 3.46326 568.428 0 563.697 0C563.675 0 563.654 7.26193e-05 563.632 0.000217622C563.61 7.26193e-05 563.589 0 563.567 0C558.836 0 554.935 3.46313 554.391 7.9287C553.847 3.46313 549.946 0 545.215 0C545.193 0 545.172 7.25507e-05 545.15 0.000217416C545.128 7.25507e-05 545.107 0 545.086 0C540.354 0 536.453 3.46326 535.909 7.92895C535.366 3.46326 531.465 0 526.733 0C526.711 0 526.69 7.26202e-05 526.668 0.000217624C526.647 7.26202e-05 526.625 0 526.604 0C521.872 0 517.971 3.46339 517.427 7.92919C516.884 3.46339 512.983 0 508.251 0C508.23 0 508.208 7.21997e-05 508.187 0.000216365C508.165 7.22003e-05 508.143 0 508.122 0C503.39 0 499.489 3.46326 498.946 7.92895C498.402 3.46326 494.501 0 489.769 0C489.748 0 489.726 7.21998e-05 489.705 0.000216365C489.683 7.21992e-05 489.662 0 489.64 0C484.908 0 481.007 3.46326 480.464 7.92895C479.92 3.46326 476.019 0 471.288 0C471.266 0 471.244 7.21653e-05 471.223 0.000216262C471.201 7.21647e-05 471.18 0 471.158 0C466.427 0 462.526 3.46326 461.982 7.92895C461.438 3.46326 457.537 0 452.806 0C452.784 0 452.763 7.21993e-05 452.741 0.000216364C452.719 7.21999e-05 452.698 0 452.676 0C447.945 0 444.044 3.46326 443.5 7.92895C442.956 3.46326 439.055 0 434.324 0C434.302 0 434.281 7.21993e-05 434.259 0.000216364C434.237 7.21999e-05 434.216 0 434.194 0C429.463 0 425.562 3.46326 425.018 7.92895C424.474 3.46326 420.573 0 415.842 0C415.82 0 415.799 7.21653e-05 415.777 0.000216262C415.756 7.21647e-05 415.734 0 415.712 0C410.981 0 407.08 3.46326 406.536 7.92895C405.993 3.46326 402.092 0 397.36 0C397.338 0 397.317 7.21661e-05 397.295 0.000216264C397.274 7.21667e-05 397.252 0 397.231 0C392.499 0 388.598 3.46332 388.054 7.92907C387.511 3.46332 383.61 0 378.878 0C378.857 0 378.835 7.21993e-05 378.813 0.000216364C378.792 7.21999e-05 378.77 0 378.749 0C374.017 0 370.116 3.46326 369.573 7.92895C369.029 3.46326 365.128 0 360.396 0C360.375 0 360.353 7.21993e-05 360.332 0.000216364C360.31 7.21999e-05 360.288 0 360.267 0C355.535 0 351.634 3.46332 351.091 7.92907C350.547 3.46332 346.646 0 341.914 0C341.893 0 341.871 7.21653e-05 341.85 0.000216262C341.828 7.21647e-05 341.807 0 341.785 0C337.053 0 333.152 3.46332 332.609 7.92907C332.065 3.46332 328.164 0 323.433 0C323.411 0 323.389 7.21994e-05 323.368 0.000216364C323.346 7.21988e-05 323.325 0 323.303 0C318.572 0 314.671 3.46332 314.127 7.92907Z" fill="white"/>
<path d="M314.127 7.92907L313.134 8.04991H315.12L314.127 7.92907ZM314.127 10.0709L315.12 9.95009H313.134L314.127 10.0709ZM323.368 17.9998L323.375 16.9997L323.361 16.9998L323.368 17.9998ZM332.609 10.0709L333.602 9.95009H331.616L332.609 10.0709ZM341.85 17.9998L341.856 16.9997L341.843 16.9998L341.85 17.9998ZM351.091 10.0709L352.083 9.95009H350.098L351.091 10.0709ZM360.332 17.9998L360.338 16.9997L360.325 16.9998L360.332 17.9998ZM369.573 10.0711L370.565 9.95019H368.58L369.573 10.0711ZM378.813 17.9998L378.82 16.9997L378.807 16.9998L378.813 17.9998ZM388.054 10.0709L389.047 9.95009H387.062L388.054 10.0709ZM397.295 17.9998L397.302 16.9997L397.289 16.9998L397.295 17.9998ZM406.536 10.0711L407.529 9.95019H405.544L406.536 10.0711ZM415.777 17.9998L415.784 16.9997L415.77 16.9998L415.777 17.9998ZM425.018 10.0711L426.011 9.95019H424.025L425.018 10.0711ZM434.259 17.9998L434.266 16.9997L434.252 16.9998L434.259 17.9998ZM443.5 10.0711L444.493 9.95019H442.507L443.5 10.0711ZM452.741 17.9998L452.748 16.9997L452.734 16.9998L452.741 17.9998ZM461.982 10.0711L462.975 9.9502H460.989L461.982 10.0711ZM471.223 17.9998L471.229 16.9997L471.216 16.9998L471.223 17.9998ZM480.464 10.0711L481.456 9.95019H479.471L480.464 10.0711ZM489.705 17.9998L489.711 16.9997L489.698 16.9998L489.705 17.9998ZM498.946 10.0711L499.938 9.95019H497.953L498.946 10.0711ZM508.187 17.9998L508.193 16.9997L508.18 16.9998L508.187 17.9998ZM517.427 10.0708L518.42 9.94998H516.435L517.427 10.0708ZM526.668 17.9998L526.675 16.9997L526.661 16.9998L526.668 17.9998ZM535.909 10.0711L536.902 9.9502H534.917L535.909 10.0711ZM545.15 17.9998L545.157 16.9997L545.143 16.9998L545.15 17.9998ZM554.391 10.0713L555.384 9.95041H553.399L554.391 10.0713ZM563.632 17.9998L563.639 16.9997L563.625 16.9998L563.632 17.9998ZM572.873 10.0711L573.866 9.95019H571.88L572.873 10.0711ZM572.873 7.92895L571.88 8.04981H573.866L572.873 7.92895ZM563.632 0.000217622L563.625 1.00029L563.639 1.0002L563.632 0.000217622ZM554.391 7.9287L553.399 8.04959H555.384L554.391 7.9287ZM545.15 0.000217416L545.143 1.00028L545.157 1.00019L545.15 0.000217416ZM535.909 7.92895L534.917 8.0498H536.902L535.909 7.92895ZM526.668 0.000217624L526.661 1.00029L526.675 1.0002L526.668 0.000217624ZM517.427 7.92919L516.435 8.05002H518.42L517.427 7.92919ZM508.187 0.000216365L508.18 1.00028L508.193 1.00019L508.187 0.000216365ZM498.946 7.92895L497.953 8.04981H499.938L498.946 7.92895ZM489.705 0.000216365L489.698 1.00028L489.711 1.00019L489.705 0.000216365ZM480.464 7.92895L479.471 8.04981H481.456L480.464 7.92895ZM471.223 0.000216262L471.216 1.00028L471.229 1.00019L471.223 0.000216262ZM461.982 7.92895L460.989 8.0498H462.975L461.982 7.92895ZM452.741 0.000216364L452.734 1.00028L452.748 1.00019L452.741 0.000216364ZM443.5 7.92895L442.507 8.04981H444.493L443.5 7.92895ZM434.259 0.000216364L434.252 1.00028L434.266 1.00019L434.259 0.000216364ZM425.018 7.92895L424.025 8.04981H426.011L425.018 7.92895ZM415.777 0.000216262L415.771 1.00028L415.784 1.00019L415.777 0.000216262ZM406.536 7.92895L405.544 8.04981H407.529L406.536 7.92895ZM397.295 0.000216264L397.289 1.00028L397.302 1.00019L397.295 0.000216264ZM388.054 7.92907L387.062 8.04991H389.047L388.054 7.92907ZM378.813 0.000216364L378.807 1.00028L378.82 1.00019L378.813 0.000216364ZM369.573 7.92895L368.58 8.04981H370.565L369.573 7.92895ZM360.332 0.000216364L360.325 1.00028L360.338 1.00019L360.332 0.000216364ZM351.091 7.92907L350.098 8.04991H352.083L351.091 7.92907ZM341.85 0.000216262L341.843 1.00028L341.856 1.00019L341.85 0.000216262ZM332.609 7.92907L331.616 8.04991H333.602L332.609 7.92907ZM323.368 0.000216364L323.361 1.00028L323.375 1.00019L323.368 0.000216364ZM9.24093 19C14.8718 19 19.4819 14.5476 19.4819 9H17.4819C17.4819 13.3935 13.8173 17 9.24093 17V19ZM-1 9C-1 14.5476 3.61009 19 9.24093 19V17C4.66452 17 1 13.3935 1 9H-1ZM9.24093 -1C3.61009 -1 -1 3.45241 -1 9H1C1 4.60646 4.66452 1 9.24093 1V-1ZM19.4819 9C19.4819 3.45241 14.8718 -1 9.24093 -1V1C13.8173 1 17.4819 4.60646 17.4819 9H19.4819ZM27.7228 19C33.3536 19 37.9637 14.5476 37.9637 9H35.9637C35.9637 13.3935 32.2992 17 27.7228 17V19ZM17.4819 9C17.4819 14.5476 22.092 19 27.7228 19V17C23.1464 17 19.4819 13.3935 19.4819 9H17.4819ZM27.7228 -1C22.092 -1 17.4819 3.45241 17.4819 9H19.4819C19.4819 4.60646 23.1464 1 27.7228 1V-1ZM37.9637 9C37.9637 3.45241 33.3536 -1 27.7228 -1V1C32.2992 1 35.9637 4.60646 35.9637 9H37.9637ZM46.2047 19C51.8355 19 56.4456 14.5476 56.4456 9H54.4456C54.4456 13.3935 50.7811 17 46.2047 17V19ZM35.9637 9C35.9637 14.5476 40.5738 19 46.2047 19V17C41.6283 17 37.9637 13.3935 37.9637 9H35.9637ZM46.2047 -1C40.5738 -1 35.9637 3.45241 35.9637 9H37.9637C37.9637 4.60646 41.6283 1 46.2047 1V-1ZM56.4456 9C56.4456 3.45241 51.8355 -1 46.2047 -1V1C50.7811 1 54.4456 4.60646 54.4456 9H56.4456ZM64.6865 19C70.3174 19 74.9275 14.5476 74.9275 9H72.9275C72.9275 13.3935 69.2629 17 64.6865 17V19ZM54.4456 9C54.4456 14.5476 59.0557 19 64.6865 19V17C60.1101 17 56.4456 13.3935 56.4456 9H54.4456ZM64.6865 -1C59.0557 -1 54.4456 3.45241 54.4456 9H56.4456C56.4456 4.60646 60.1101 1 64.6865 1V-1ZM74.9275 9C74.9275 3.45241 70.3174 -1 64.6865 -1V1C69.2629 1 72.9275 4.60646 72.9275 9H74.9275ZM83.1684 19C88.7992 19 93.4093 14.5476 93.4093 9H91.4093C91.4093 13.3935 87.7448 17 83.1684 17V19ZM72.9275 9C72.9275 14.5476 77.5375 19 83.1684 19V17C78.592 17 74.9275 13.3935 74.9275 9H72.9275ZM83.1684 -1C77.5375 -1 72.9275 3.45241 72.9275 9H74.9275C74.9275 4.60646 78.592 1 83.1684 1V-1ZM93.4093 9C93.4093 3.45241 88.7992 -1 83.1684 -1V1C87.7448 1 91.4093 4.60646 91.4093 9H93.4093ZM101.65 19C107.281 19 111.891 14.5476 111.891 9H109.891C109.891 13.3935 106.227 17 101.65 17V19ZM91.4093 9C91.4093 14.5476 96.0194 19 101.65 19V17C97.0738 17 93.4093 13.3935 93.4093 9H91.4093ZM101.65 -1C96.0194 -1 91.4093 3.45241 91.4093 9H93.4093C93.4093 4.60646 97.0738 1 101.65 1V-1ZM111.891 9C111.891 3.45241 107.281 -1 101.65 -1V1C106.227 1 109.891 4.60646 109.891 9H111.891ZM120.132 19C125.763 19 130.373 14.5476 130.373 9H128.373C128.373 13.3935 124.709 17 120.132 17V19ZM109.891 9C109.891 14.5476 114.501 19 120.132 19V17C115.556 17 111.891 13.3935 111.891 9H109.891ZM120.132 -1C114.501 -1 109.891 3.45241 109.891 9H111.891C111.891 4.60646 115.556 1 120.132 1V-1ZM130.373 9C130.373 3.45241 125.763 -1 120.132 -1V1C124.709 1 128.373 4.60646 128.373 9H130.373ZM138.614 19C144.245 19 148.855 14.5476 148.855 9H146.855C146.855 13.3935 143.19 17 138.614 17V19ZM128.373 9C128.373 14.5476 132.983 19 138.614 19V17C134.038 17 130.373 13.3935 130.373 9H128.373ZM138.614 -1C132.983 -1 128.373 3.45241 128.373 9H130.373C130.373 4.60646 134.038 1 138.614 1V-1ZM148.855 9C148.855 3.45241 144.245 -1 138.614 -1V1C143.19 1 146.855 4.60646 146.855 9H148.855ZM157.096 19C162.727 19 167.337 14.5476 167.337 9H165.337C165.337 13.3935 161.672 17 157.096 17V19ZM146.855 9C146.855 14.5476 151.465 19 157.096 19V17C152.519 17 148.855 13.3935 148.855 9H146.855ZM157.096 -1C151.465 -1 146.855 3.45241 146.855 9H148.855C148.855 4.60646 152.519 1 157.096 1V-1ZM167.337 9C167.337 3.45241 162.727 -1 157.096 -1V1C161.672 1 165.337 4.60646 165.337 9H167.337ZM175.578 19C181.209 19 185.819 14.5476 185.819 9H183.819C183.819 13.3935 180.154 17 175.578 17V19ZM165.337 9C165.337 14.5476 169.947 19 175.578 19V17C171.001 17 167.337 13.3935 167.337 9H165.337ZM175.578 -1C169.947 -1 165.337 3.45241 165.337 9H167.337C167.337 4.60646 171.001 1 175.578 1V-1ZM185.819 9C185.819 3.45241 181.209 -1 175.578 -1V1C180.154 1 183.819 4.60646 183.819 9H185.819ZM194.06 19C199.69 19 204.301 14.5476 204.301 9H202.301C202.301 13.3935 198.636 17 194.06 17V19ZM183.819 9C183.819 14.5476 188.429 19 194.06 19V17C189.483 17 185.819 13.3935 185.819 9H183.819ZM194.06 -1C188.429 -1 183.819 3.45241 183.819 9H185.819C185.819 4.60646 189.483 1 194.06 1V-1ZM204.301 9C204.301 3.45241 199.69 -1 194.06 -1V1C198.636 1 202.301 4.60646 202.301 9H204.301ZM212.541 19C218.172 19 222.782 14.5476 222.782 9H220.782C220.782 13.3935 217.118 17 212.541 17V19ZM202.301 9C202.301 14.5476 206.911 19 212.541 19V17C207.965 17 204.301 13.3935 204.301 9H202.301ZM212.541 -1C206.911 -1 202.301 3.45241 202.301 9H204.301C204.301 4.60646 207.965 1 212.541 1V-1ZM222.782 9C222.782 3.45241 218.172 -1 212.541 -1V1C217.118 1 220.782 4.60646 220.782 9H222.782ZM231.023 19C236.654 19 241.264 14.5476 241.264 9H239.264C239.264 13.3935 235.6 17 231.023 17V19ZM220.782 9C220.782 14.5476 225.392 19 231.023 19V17C226.447 17 222.782 13.3935 222.782 9H220.782ZM231.023 -1C225.392 -1 220.782 3.45241 220.782 9H222.782C222.782 4.60646 226.447 1 231.023 1V-1ZM241.264 9C241.264 3.45241 236.654 -1 231.023 -1V1C235.6 1 239.264 4.60646 239.264 9H241.264ZM249.505 19C255.136 19 259.746 14.5476 259.746 9H257.746C257.746 13.3935 254.082 17 249.505 17V19ZM239.264 9C239.264 14.5476 243.874 19 249.505 19V17C244.929 17 241.264 13.3935 241.264 9H239.264ZM249.505 -1C243.874 -1 239.264 3.45241 239.264 9H241.264C241.264 4.60646 244.929 1 249.505 1V-1ZM259.746 9C259.746 3.45242 255.136 -1 249.505 -1V1C254.082 1 257.746 4.60646 257.746 9H259.746ZM267.987 19C273.618 19 278.228 14.5476 278.228 9H276.228C276.228 13.3935 272.563 17 267.987 17V19ZM257.746 9C257.746 14.5476 262.356 19 267.987 19V17C263.411 17 259.746 13.3935 259.746 9H257.746ZM267.987 -1C262.356 -1 257.746 3.45241 257.746 9H259.746C259.746 4.60646 263.411 1 267.987 1V-1ZM278.228 9C278.228 3.45241 273.618 -1 267.987 -1V1C272.563 1 276.228 4.60646 276.228 9H278.228ZM286.469 19C292.1 19 296.71 14.5476 296.71 9H294.71C294.71 13.3935 291.045 17 286.469 17V19ZM276.228 9C276.228 14.5476 280.838 19 286.469 19V17C281.892 17 278.228 13.3935 278.228 9H276.228ZM286.469 -1C280.838 -1 276.228 3.45242 276.228 9H278.228C278.228 4.60646 281.892 1 286.469 1V-1ZM296.71 9C296.71 3.45241 292.1 -1 286.469 -1V1C291.045 1 294.71 4.60646 294.71 9H296.71ZM315.12 7.80823C314.513 2.82625 310.173 -1 304.951 -1V1C309.191 1 312.653 4.10039 313.134 8.04991L315.12 7.80823ZM304.951 -1C299.32 -1 294.71 3.45241 294.71 9H296.71C296.71 4.60646 300.374 1 304.951 1V-1ZM294.71 9C294.71 14.5476 299.32 19 304.951 19V17C300.374 17 296.71 13.3935 296.71 9H294.71ZM304.951 19C310.173 19 314.513 15.1737 315.12 10.1918L313.134 9.95009C312.653 13.8996 309.191 17 304.951 17V19ZM313.134 10.1918C313.741 15.1737 318.081 19 323.303 19V17C319.062 17 315.6 13.8996 315.12 9.95009L313.134 10.1918ZM323.303 19C323.327 19 323.351 18.9999 323.375 18.9998L323.361 16.9998C323.342 16.9999 323.323 17 323.303 17V19ZM323.361 18.9998C323.385 18.9999 323.409 19 323.433 19V17C323.413 17 323.394 16.9999 323.375 16.9998L323.361 18.9998ZM323.433 19C328.655 19 332.995 15.1737 333.602 10.1918L331.616 9.95009C331.135 13.8996 327.673 17 323.433 17V19ZM331.616 10.1918C332.223 15.1737 336.562 19 341.785 19V17C337.544 17 334.082 13.8996 333.602 9.95009L331.616 10.1918ZM341.785 19C341.809 19 341.833 18.9999 341.856 18.9998L341.843 16.9998C341.824 16.9999 341.804 17 341.785 17V19ZM341.843 18.9998C341.867 18.9999 341.891 19 341.914 19V17C341.895 17 341.876 16.9999 341.856 16.9998L341.843 18.9998ZM341.914 19C347.137 19 351.477 15.1737 352.083 10.1918L350.098 9.95009C349.617 13.8996 346.155 17 341.914 17V19ZM350.098 10.1918C350.704 15.1737 355.044 19 360.267 19V17C356.026 17 352.564 13.8996 352.083 9.95009L350.098 10.1918ZM360.267 19C360.291 19 360.314 18.9999 360.338 18.9998L360.325 16.9998C360.306 16.9999 360.286 17 360.267 17V19ZM360.325 18.9998C360.349 18.9999 360.373 19 360.396 19V17C360.377 17 360.358 16.9999 360.338 16.9998L360.325 18.9998ZM360.396 19C365.619 19 369.959 15.1738 370.565 10.1919L368.58 9.95019C368.099 13.8997 364.637 17 360.396 17V19ZM368.58 10.1919C369.186 15.1738 373.526 19 378.749 19V17C374.508 17 371.046 13.8997 370.565 9.95019L368.58 10.1919ZM378.749 19C378.772 19 378.796 18.9999 378.82 18.9998L378.807 16.9998C378.787 16.9999 378.768 17 378.749 17V19ZM378.807 18.9998C378.831 18.9999 378.854 19 378.878 19V17C378.859 17 378.839 16.9999 378.82 16.9998L378.807 18.9998ZM378.878 19C384.101 19 388.441 15.1737 389.047 10.1918L387.062 9.95009C386.581 13.8996 383.119 17 378.878 17V19ZM387.062 10.1918C387.668 15.1737 392.008 19 397.231 19V17C392.99 17 389.528 13.8996 389.047 9.95009L387.062 10.1918ZM397.231 19C397.254 19 397.278 18.9999 397.302 18.9998L397.289 16.9998C397.269 16.9999 397.25 17 397.231 17V19ZM397.289 18.9998C397.312 18.9999 397.336 19 397.36 19V17C397.341 17 397.321 16.9999 397.302 16.9998L397.289 18.9998ZM397.36 19C402.582 19 406.922 15.1738 407.529 10.1919L405.544 9.95019C405.063 13.8997 401.601 17 397.36 17V19ZM405.544 10.1919C406.15 15.1738 410.49 19 415.712 19V17C411.472 17 408.01 13.8997 407.529 9.95019L405.544 10.1919ZM415.712 19C415.736 19 415.76 18.9999 415.784 18.9998L415.77 16.9998C415.751 16.9999 415.732 17 415.712 17V19ZM415.77 18.9998C415.794 18.9999 415.818 19 415.842 19V17C415.823 17 415.803 16.9999 415.784 16.9998L415.77 18.9998ZM415.842 19C421.064 19 425.404 15.1738 426.011 10.1919L424.025 9.95019C423.545 13.8997 420.083 17 415.842 17V19ZM424.025 10.1919C424.632 15.1738 428.972 19 434.194 19V17C429.954 17 426.492 13.8997 426.011 9.95019L424.025 10.1919ZM434.194 19C434.218 19 434.242 18.9999 434.266 18.9998L434.252 16.9998C434.233 16.9999 434.214 17 434.194 17V19ZM434.252 18.9998C434.276 18.9999 434.3 19 434.324 19V17C434.304 17 434.285 16.9999 434.266 16.9998L434.252 18.9998ZM434.324 19C439.546 19 443.886 15.1738 444.493 10.1919L442.507 9.95019C442.026 13.8997 438.564 17 434.324 17V19ZM442.507 10.1919C443.114 15.1738 447.454 19 452.676 19V17C448.436 17 444.974 13.8997 444.493 9.95019L442.507 10.1919ZM452.676 19C452.7 19 452.724 18.9999 452.748 18.9998L452.734 16.9998C452.715 16.9999 452.696 17 452.676 17V19ZM452.734 18.9998C452.758 18.9999 452.782 19 452.806 19V17C452.786 17 452.767 16.9999 452.748 16.9998L452.734 18.9998ZM452.806 19C458.028 19 462.368 15.1738 462.975 10.1919L460.989 9.9502C460.508 13.8997 457.046 17 452.806 17V19ZM460.989 10.1919C461.596 15.1738 465.936 19 471.158 19V17C466.917 17 463.455 13.8997 462.975 9.9502L460.989 10.1919ZM471.158 19C471.182 19 471.206 18.9999 471.229 18.9998L471.216 16.9998C471.197 16.9999 471.177 17 471.158 17V19ZM471.216 18.9998C471.24 18.9999 471.264 19 471.288 19V17C471.268 17 471.249 16.9999 471.229 16.9998L471.216 18.9998ZM471.288 19C476.51 19 480.85 15.1738 481.456 10.1919L479.471 9.95019C478.99 13.8997 475.528 17 471.288 17V19ZM479.471 10.1919C480.078 15.1738 484.418 19 489.64 19V17C485.399 17 481.937 13.8997 481.456 9.95019L479.471 10.1919ZM489.64 19C489.664 19 489.688 18.9999 489.711 18.9998L489.698 16.9998C489.679 16.9999 489.659 17 489.64 17V19ZM489.698 18.9998C489.722 18.9999 489.746 19 489.769 19V17C489.75 17 489.731 16.9999 489.711 16.9998L489.698 18.9998ZM489.769 19C494.992 19 499.332 15.1738 499.938 10.1919L497.953 9.95019C497.472 13.8997 494.01 17 489.769 17V19ZM497.953 10.1919C498.559 15.1738 502.899 19 508.122 19V17C503.881 17 500.419 13.8997 499.938 9.95019L497.953 10.1919ZM508.122 19C508.146 19 508.169 18.9999 508.193 18.9998L508.18 16.9998C508.161 16.9999 508.141 17 508.122 17V19ZM508.18 18.9998C508.204 18.9999 508.228 19 508.251 19V17C508.232 17 508.213 16.9999 508.193 16.9998L508.18 18.9998ZM508.251 19C513.474 19 517.814 15.1737 518.42 10.1916L516.435 9.94998C515.954 13.8995 512.492 17 508.251 17V19ZM516.435 10.1916C517.041 15.1737 521.381 19 526.604 19V17C522.363 17 518.901 13.8996 518.42 9.94998L516.435 10.1916ZM526.604 19C526.628 19 526.651 18.9999 526.675 18.9998L526.661 16.9998C526.642 16.9999 526.623 17 526.604 17V19ZM526.661 18.9998C526.685 18.9999 526.709 19 526.733 19V17C526.714 17 526.694 16.9999 526.675 16.9998L526.661 18.9998ZM526.733 19C531.956 19 536.295 15.1738 536.902 10.1919L534.917 9.9502C534.436 13.8997 530.974 17 526.733 17V19ZM534.917 10.1919C535.523 15.1738 539.863 19 545.086 19V17C540.845 17 537.383 13.8997 536.902 9.9502L534.917 10.1919ZM545.086 19C545.109 19 545.133 18.9999 545.157 18.9998L545.143 16.9998C545.124 16.9999 545.105 17 545.086 17V19ZM545.143 18.9998C545.167 18.9999 545.191 19 545.215 19V17C545.195 17 545.176 16.9999 545.157 16.9998L545.143 18.9998ZM545.215 19C550.437 19 554.777 15.174 555.384 10.1922L553.399 9.95041C552.918 13.8998 549.456 17 545.215 17V19ZM553.399 10.1922C554.005 15.174 558.345 19 563.567 19V17C559.327 17 555.865 13.8998 555.384 9.95041L553.399 10.1922ZM563.567 19C563.591 19 563.615 18.9999 563.639 18.9998L563.625 16.9998C563.606 16.9999 563.587 17 563.567 17V19ZM563.625 18.9998C563.649 18.9999 563.673 19 563.697 19V17C563.677 17 563.658 16.9999 563.639 16.9998L563.625 18.9998ZM563.697 19C568.919 19 573.259 15.1738 573.866 10.1919L571.88 9.95019C571.4 13.8997 567.937 17 563.697 17V19ZM571.88 10.1919C572.487 15.1738 576.827 19 582.049 19V17C577.809 17 574.347 13.8997 573.866 9.95019L571.88 10.1919ZM582.049 19C587.68 19 592.29 14.5476 592.29 9H590.29C590.29 13.3935 586.626 17 582.049 17V19ZM590.29 9C590.29 14.5476 594.9 19 600.531 19V17C595.955 17 592.29 13.3935 592.29 9H590.29ZM600.531 19C606.162 19 610.772 14.5476 610.772 9H608.772C608.772 13.3935 605.107 17 600.531 17V19ZM608.772 9C608.772 14.5476 613.382 19 619.013 19V17C614.437 17 610.772 13.3935 610.772 9H608.772ZM619.013 19C624.644 19 629.254 14.5476 629.254 9H627.254C627.254 13.3935 623.589 17 619.013 17V19ZM627.254 9C627.254 14.5476 631.864 19 637.495 19V17C632.918 17 629.254 13.3935 629.254 9H627.254ZM637.495 19C643.126 19 647.736 14.5476 647.736 9H645.736C645.736 13.3935 642.071 17 637.495 17V19ZM645.736 9C645.736 14.5476 650.346 19 655.977 19V17C651.4 17 647.736 13.3935 647.736 9H645.736ZM655.977 19C661.608 19 666.218 14.5476 666.218 9H664.218C664.218 13.3935 660.553 17 655.977 17V19ZM664.218 9C664.218 14.5476 668.828 19 674.459 19V17C669.882 17 666.218 13.3935 666.218 9H664.218ZM674.459 19C680.089 19 684.699 14.5476 684.699 9H682.699C682.699 13.3935 679.035 17 674.459 17V19ZM682.699 9C682.699 14.5476 687.31 19 692.94 19V17C688.364 17 684.699 13.3935 684.699 9H682.699ZM692.94 19C698.571 19 703.181 14.5476 703.181 9H701.181C701.181 13.3935 697.517 17 692.94 17V19ZM701.181 9C701.181 14.5476 705.791 19 711.422 19V17C706.846 17 703.181 13.3935 703.181 9H701.181ZM711.422 19C717.053 19 721.663 14.5476 721.663 9H719.663C719.663 13.3935 715.999 17 711.422 17V19ZM719.663 9C719.663 14.5476 724.273 19 729.904 19V17C725.328 17 721.663 13.3935 721.663 9H719.663ZM729.904 19C735.535 19 740.145 14.5476 740.145 9H738.145C738.145 13.3935 734.481 17 729.904 17V19ZM738.145 9C738.145 14.5476 742.755 19 748.386 19V17C743.81 17 740.145 13.3935 740.145 9H738.145ZM748.386 19C754.017 19 758.627 14.5476 758.627 9H756.627C756.627 13.3935 752.962 17 748.386 17V19ZM756.627 9C756.627 14.5476 761.237 19 766.868 19V17C762.291 17 758.627 13.3935 758.627 9H756.627ZM766.868 19C772.499 19 777.109 14.5476 777.109 9H775.109C775.109 13.3935 771.444 17 766.868 17V19ZM775.109 9C775.109 14.5476 779.719 19 785.35 19V17C780.773 17 777.109 13.3935 777.109 9H775.109ZM785.35 19C790.981 19 795.591 14.5476 795.591 9H793.591C793.591 13.3935 789.926 17 785.35 17V19ZM793.591 9C793.591 14.5476 798.201 19 803.832 19V17C799.255 17 795.591 13.3935 795.591 9H793.591ZM803.832 19C809.462 19 814.073 14.5476 814.073 9H812.073C812.073 13.3935 808.408 17 803.832 17V19ZM812.073 9C812.073 14.5476 816.683 19 822.313 19V17C817.737 17 814.073 13.3935 814.073 9H812.073ZM822.313 19C827.944 19 832.554 14.5476 832.554 9H830.554C830.554 13.3935 826.89 17 822.313 17V19ZM830.554 9C830.554 14.5476 835.165 19 840.795 19V17C836.219 17 832.554 13.3935 832.554 9H830.554ZM840.795 19C846.426 19 851.036 14.5476 851.036 9H849.036C849.036 13.3935 845.372 17 840.795 17V19ZM849.036 9C849.036 14.5476 853.646 19 859.277 19V17C854.701 17 851.036 13.3935 851.036 9H849.036ZM859.277 19C864.908 19 869.518 14.5476 869.518 9H867.518C867.518 13.3935 863.854 17 859.277 17V19ZM867.518 9C867.518 14.5476 872.128 19 877.759 19V17C873.183 17 869.518 13.3935 869.518 9H867.518ZM877.759 19C883.39 19 888 14.5476 888 9H886C886 13.3935 882.335 17 877.759 17V19ZM888 9C888 3.45241 883.39 -1 877.759 -1V1C882.335 1 886 4.60646 886 9H888ZM877.759 -1C872.128 -1 867.518 3.45242 867.518 9H869.518C869.518 4.60646 873.183 1 877.759 1V-1ZM869.518 9C869.518 3.4524 864.908 -1 859.277 -1V1C863.854 1 867.518 4.60647 867.518 9H869.518ZM859.277 -1C853.646 -1 849.036 3.45241 849.036 9H851.036C851.036 4.60646 854.701 1 859.277 1V-1ZM851.036 9C851.036 3.45242 846.426 -1 840.795 -1V1C845.372 1 849.036 4.60646 849.036 9H851.036ZM840.795 -1C835.165 -1 830.554 3.4524 830.554 9H832.554C832.554 4.60647 836.219 1 840.795 1V-1ZM832.554 9C832.554 3.45242 827.944 -1 822.313 -1V1C826.89 1 830.554 4.60646 830.554 9H832.554ZM822.313 -1C816.683 -1 812.073 3.4524 812.073 9H814.073C814.073 4.60647 817.737 1 822.313 1V-1ZM814.073 9C814.073 3.45242 809.462 -1 803.832 -1V1C808.408 1 812.073 4.60646 812.073 9H814.073ZM803.832 -1C798.201 -1 793.591 3.45241 793.591 9H795.591C795.591 4.60646 799.255 1 803.832 1V-1ZM795.591 9C795.591 3.45241 790.981 -1 785.35 -1V1C789.926 1 793.591 4.60646 793.591 9H795.591ZM785.35 -1C779.719 -1 775.109 3.45242 775.109 9H777.109C777.109 4.60646 780.773 1 785.35 1V-1ZM777.109 9C777.109 3.45241 772.499 -1 766.868 -1V1C771.444 1 775.109 4.60646 775.109 9H777.109ZM766.868 -1C761.237 -1 756.627 3.45242 756.627 9H758.627C758.627 4.60646 762.291 1 766.868 1V-1ZM758.627 9C758.627 3.45242 754.017 -1 748.386 -1V1C752.962 1 756.627 4.60646 756.627 9H758.627ZM748.386 -1C742.755 -1 738.145 3.45241 738.145 9H740.145C740.145 4.60646 743.81 1 748.386 1V-1ZM740.145 9C740.145 3.45241 735.535 -1 729.904 -1V1C734.481 1 738.145 4.60646 738.145 9H740.145ZM729.904 -1C724.273 -1 719.663 3.45242 719.663 9H721.663C721.663 4.60646 725.328 1 729.904 1V-1ZM721.663 9C721.663 3.45242 717.053 -1 711.422 -1V1C715.999 1 719.663 4.60646 719.663 9H721.663ZM711.422 -1C705.791 -1 701.181 3.45241 701.181 9H703.181C703.181 4.60646 706.846 1 711.422 1V-1ZM703.181 9C703.181 3.45242 698.571 -1 692.94 -1V1C697.517 1 701.181 4.60646 701.181 9H703.181ZM692.94 -1C687.31 -1 682.699 3.45241 682.699 9H684.699C684.699 4.60646 688.364 1 692.94 1V-1ZM684.699 9C684.699 3.45242 680.089 -1 674.459 -1V1C679.035 1 682.699 4.60646 682.699 9H684.699ZM674.459 -1C668.828 -1 664.218 3.45242 664.218 9H666.218C666.218 4.60646 669.882 1 674.459 1V-1ZM666.218 9C666.218 3.45241 661.608 -1 655.977 -1V1C660.553 1 664.218 4.60646 664.218 9H666.218ZM655.977 -1C650.346 -1 645.736 3.45241 645.736 9H647.736C647.736 4.60646 651.4 1 655.977 1V-1ZM647.736 9C647.736 3.45242 643.126 -1 637.495 -1V1C642.071 1 645.736 4.60646 645.736 9H647.736ZM637.495 -1C631.864 -1 627.254 3.45242 627.254 9H629.254C629.254 4.60646 632.918 1 637.495 1V-1ZM629.254 9C629.254 3.45242 624.644 -1 619.013 -1V1C623.589 1 627.254 4.60646 627.254 9H629.254ZM619.013 -1C613.382 -1 608.772 3.45241 608.772 9H610.772C610.772 4.60646 614.437 1 619.013 1V-1ZM610.772 9C610.772 3.45241 606.162 -1 600.531 -1V1C605.107 1 608.772 4.60646 608.772 9H610.772ZM600.531 -1C594.9 -1 590.29 3.45242 590.29 9H592.29C592.29 4.60646 595.955 1 600.531 1V-1ZM592.29 9C592.29 3.45242 587.68 -1 582.049 -1V1C586.626 1 590.29 4.60646 590.29 9H592.29ZM582.049 -1C576.827 -1 572.487 2.82618 571.88 7.80809L573.866 8.04981C574.347 4.10034 577.809 1 582.049 1V-1ZM573.866 7.80809C573.259 2.82618 568.919 -1 563.697 -1V1C567.937 1 571.4 4.10034 571.88 8.04981L573.866 7.80809ZM563.697 -1C563.673 -1 563.649 -0.99992 563.625 -0.99976L563.639 1.0002C563.658 1.00007 563.677 1 563.697 1V-1ZM563.639 -0.99976C563.615 -0.99992 563.591 -1 563.567 -1V1C563.587 1 563.606 1.00006 563.625 1.0002L563.639 -0.99976ZM563.567 -1C558.345 -1 554.005 2.82604 553.399 7.80781L555.384 8.04959C555.865 4.10022 559.327 1 563.567 1V-1ZM555.384 7.80781C554.777 2.82603 550.437 -1 545.215 -1V1C549.456 1 552.918 4.10024 553.399 8.04959L555.384 7.80781ZM545.215 -1C545.191 -1 545.167 -0.99992 545.143 -0.99976L545.157 1.00019C545.176 1.00007 545.196 1 545.215 1V-1ZM545.157 -0.99976C545.133 -0.99992 545.109 -1 545.086 -1V1C545.105 1 545.124 1.00006 545.143 1.00019L545.157 -0.99976ZM545.086 -1C539.863 -1 535.523 2.82618 534.917 7.80809L536.902 8.0498C537.383 4.10034 540.845 1 545.086 1V-1ZM536.902 7.80809C536.295 2.82618 531.956 -1 526.733 -1V1C530.974 1 534.436 4.10033 534.917 8.0498L536.902 7.80809ZM526.733 -1C526.709 -1 526.685 -0.99992 526.661 -0.99976L526.675 1.0002C526.694 1.00007 526.714 1 526.733 1V-1ZM526.675 -0.99976C526.651 -0.99992 526.628 -1 526.604 -1V1C526.623 1 526.642 1.00006 526.661 1.0002L526.675 -0.99976ZM526.604 -1C521.381 -1 517.041 2.82633 516.435 7.80836L518.42 8.05002C518.901 4.10044 522.363 1 526.604 1V-1ZM518.42 7.80836C517.814 2.82632 513.474 -1 508.251 -1V1C512.492 1 515.954 4.10045 516.435 8.05002L518.42 7.80836ZM508.251 -1C508.227 -1 508.204 -0.99992 508.18 -0.999761L508.193 1.00019C508.213 1.00006 508.232 1 508.251 1V-1ZM508.193 -0.999761C508.169 -0.99992 508.146 -1 508.122 -1V1C508.141 1 508.16 1.00006 508.18 1.00019L508.193 -0.999761ZM508.122 -1C502.899 -1 498.559 2.82618 497.953 7.80809L499.938 8.04981C500.419 4.10034 503.881 1 508.122 1V-1ZM499.938 7.80809C499.332 2.82618 494.992 -1 489.769 -1V1C494.01 1 497.472 4.10034 497.953 8.04981L499.938 7.80809ZM489.769 -1C489.746 -1 489.722 -0.99992 489.698 -0.999761L489.711 1.00019C489.731 1.00006 489.75 1 489.769 1V-1ZM489.711 -0.999761C489.688 -0.99992 489.664 -1 489.64 -1V1C489.659 1 489.679 1.00006 489.698 1.00019L489.711 -0.999761ZM489.64 -1C484.418 -1 480.078 2.82618 479.471 7.80809L481.456 8.04981C481.937 4.10034 485.399 1 489.64 1V-1ZM481.456 7.80809C480.85 2.82618 476.51 -1 471.288 -1V1C475.528 1 478.99 4.10034 479.471 8.04981L481.456 7.80809ZM471.288 -1C471.264 -1 471.24 -0.99992 471.216 -0.999761L471.229 1.00019C471.249 1.00006 471.268 1 471.288 1V-1ZM471.229 -0.999761C471.206 -0.99992 471.182 -1 471.158 -1V1C471.177 1 471.197 1.00006 471.216 1.00019L471.229 -0.999761ZM471.158 -1C465.936 -1 461.596 2.82618 460.989 7.80809L462.975 8.0498C463.455 4.10034 466.917 1 471.158 1V-1ZM462.975 7.80809C462.368 2.82618 458.028 -1 452.806 -1V1C457.046 1 460.508 4.10034 460.989 8.0498L462.975 7.80809ZM452.806 -1C452.782 -1 452.758 -0.99992 452.734 -0.999761L452.748 1.00019C452.767 1.00006 452.786 1 452.806 1V-1ZM452.748 -0.999761C452.724 -0.99992 452.7 -1 452.676 -1V1C452.696 1 452.715 1.00006 452.734 1.00019L452.748 -0.999761ZM452.676 -1C447.454 -1 443.114 2.82618 442.507 7.80809L444.493 8.04981C444.974 4.10034 448.436 1 452.676 1V-1ZM444.493 7.80809C443.886 2.82618 439.546 -1 434.324 -1V1C438.564 1 442.026 4.10034 442.507 8.04981L444.493 7.80809ZM434.324 -1C434.3 -1 434.276 -0.99992 434.252 -0.999761L434.266 1.00019C434.285 1.00006 434.304 1 434.324 1V-1ZM434.266 -0.999761C434.242 -0.99992 434.218 -1 434.194 -1V1C434.214 1 434.233 1.00006 434.252 1.00019L434.266 -0.999761ZM434.194 -1C428.972 -1 424.632 2.82618 424.025 7.80809L426.011 8.04981C426.492 4.10034 429.954 1 434.194 1V-1ZM426.011 7.80809C425.404 2.82618 421.064 -1 415.842 -1V1C420.083 1 423.545 4.10034 424.025 8.04981L426.011 7.80809ZM415.842 -1C415.818 -1 415.794 -0.99992 415.771 -0.999761L415.784 1.00019C415.803 1.00006 415.823 1 415.842 1V-1ZM415.784 -0.999761C415.76 -0.99992 415.736 -1 415.712 -1V1C415.732 1 415.751 1.00006 415.771 1.00019L415.784 -0.999761ZM415.712 -1C410.49 -1 406.15 2.82618 405.544 7.80809L407.529 8.04981C408.01 4.10034 411.472 1 415.712 1V-1ZM407.529 7.80809C406.922 2.82618 402.582 -1 397.36 -1V1C401.601 1 405.063 4.10034 405.544 8.04981L407.529 7.80809ZM397.36 -1C397.336 -1 397.312 -0.99992 397.289 -0.999761L397.302 1.00019C397.321 1.00006 397.341 1 397.36 1V-1ZM397.302 -0.999761C397.278 -0.99992 397.254 -1 397.231 -1V1C397.25 1 397.269 1.00006 397.289 1.00019L397.302 -0.999761ZM397.231 -1C392.008 -1 387.668 2.82625 387.062 7.80823L389.047 8.04991C389.528 4.10039 392.99 1 397.231 1V-1ZM389.047 7.80823C388.441 2.82625 384.101 -1 378.878 -1V1C383.119 1 386.581 4.10039 387.062 8.04991L389.047 7.80823ZM378.878 -1C378.854 -1 378.831 -0.99992 378.807 -0.999761L378.82 1.00019C378.84 1.00006 378.859 1 378.878 1V-1ZM378.82 -0.999761C378.796 -0.99992 378.773 -1 378.749 -1V1C378.768 1 378.787 1.00006 378.807 1.00019L378.82 -0.999761ZM378.749 -1C373.526 -1 369.186 2.82618 368.58 7.80809L370.565 8.04981C371.046 4.10034 374.508 1 378.749 1V-1ZM370.565 7.80809C369.959 2.82618 365.619 -1 360.396 -1V1C364.637 1 368.099 4.10034 368.58 8.04981L370.565 7.80809ZM360.396 -1C360.373 -1 360.349 -0.99992 360.325 -0.999761L360.338 1.00019C360.358 1.00006 360.377 1 360.396 1V-1ZM360.338 -0.999761C360.314 -0.99992 360.291 -1 360.267 -1V1C360.286 1 360.306 1.00006 360.325 1.00019L360.338 -0.999761ZM360.267 -1C355.044 -1 350.704 2.82626 350.098 7.80823L352.083 8.04991C352.564 4.10039 356.026 1 360.267 1V-1ZM352.083 7.80823C351.477 2.82625 347.137 -1 341.914 -1V1C346.155 1 349.617 4.1004 350.098 8.04991L352.083 7.80823ZM341.914 -1C341.891 -1 341.867 -0.99992 341.843 -0.999761L341.856 1.00019C341.876 1.00006 341.895 1 341.914 1V-1ZM341.856 -0.999761C341.833 -0.99992 341.809 -1 341.785 -1V1C341.804 1 341.824 1.00006 341.843 1.00019L341.856 -0.999761ZM341.785 -1C336.562 -1 332.223 2.82625 331.616 7.80823L333.602 8.04991C334.082 4.10039 337.544 1 341.785 1V-1ZM333.602 7.80823C332.995 2.82625 328.655 -1 323.433 -1V1C327.673 1 331.135 4.10039 331.616 8.04991L333.602 7.80823ZM323.433 -1C323.409 -1 323.385 -0.99992 323.361 -0.999761L323.375 1.00019C323.394 1.00006 323.413 1 323.433 1V-1ZM323.375 -0.999761C323.351 -0.99992 323.327 -1 323.303 -1V1C323.323 1 323.342 1.00006 323.361 1.00019L323.375 -0.999761ZM323.303 -1C318.081 -1 313.741 2.82625 313.134 7.80823L315.12 8.04991C315.6 4.10039 319.062 1 323.303 1V-1Z" fill="#D7E2EF" mask="url(#path-1-inside-1)"/>
</svg>
